<?xml version="1.0" encoding="utf-8"?>
<!-- Generator: Adobe Illustrator 24.2.0, SVG Export Plug-In . SVG Version: 6.00 Build 0)  -->
<svg version="1.1" id="Capa_1" xmlns="http://www.w3.org/2000/svg" xmlns:xlink="http://www.w3.org/1999/xlink" x="0px" y="0px"
	 viewBox="0 0 111.2 21.5" style="enable-background:new 0 0 111.2 21.5;" xml:space="preserve">
<style type="text/css">
	.st0{fill:#1E183A;}
	.st1{fill:#FFFDFF;}
	.st2{fill:#08B6D2;}
	.st3{fill:#A6C72E;}
	.st4{fill:none;stroke:#FFFFFF;stroke-width:1.0309;stroke-miterlimit:10;}
	.st5{fill:#FFFFFF;}
	.st6{fill:#66C5E0;}
</style>
<rect x="-809" y="34.7" class="st0" width="291" height="923.8"/>
<polygon class="st1" points="-554,154.7 -558,154.7 -556,151.3 -554,148 -552,151.3 -550,154.7 "/>
<g>
	<text transform="matrix(1 0 0 1 -726.7675 156.1892)" class="st5" style="font-family:'DINPro-Medium'; font-size:15px;">Daniel Pardo</text>
</g>
<g>
	<text transform="matrix(1 0 0 1 -726.3925 207.1892)" class="st5" style="font-family:'DINPro-Medium'; font-size:15px;">Configuraciones</text>
</g>
<g>
	<text transform="matrix(1 0 0 1 -724.2778 261.1892)" class="st5" style="font-family:'DINPro-Medium'; font-size:15px;">Cerrar Sesión</text>
</g>
<g>
	<text transform="matrix(1 0 0 1 -726.7377 380.5227)" class="st5" style="font-family:'DINPro-Medium'; font-size:15px;">Usuarios</text>
</g>
<g>
	<g>
		<path class="st1" d="M-754.6,373c2.9-2.6,3.1-7,0.5-9.9c-2.4-2.6-6.4-3.1-9.3-1c-3.2-2.2-7.6-1.5-9.8,1.7c-2.1,2.9-1.6,6.9,1,9.3
			c-3.3,1.7-5.3,5.1-5.3,8.9v3c0,0.6,0.4,1,1,1h26.1c0.6,0,1-0.4,1-1v-3C-749.3,378.1-751.3,374.7-754.6,373z M-759.3,362.8
			c2.8,0,5,2.2,5,5c0,2-1.2,3.8-3,4.6c-0.1,0-0.2,0.1-0.2,0.1c-0.2,0.1-0.5,0.2-0.8,0.2c-0.1,0-0.1,0-0.2,0
			c-0.3,0.1-0.6,0.1-0.9,0.1c-0.1,0-0.3,0-0.4,0c-0.1,0-0.1,0-0.2,0c-0.6-0.1-1.1-0.2-1.6-0.5c0,0,0,0-0.1,0c-0.1,0-0.2-0.1-0.3-0.1
			c0,0,0,0,0,0c0.5-0.6,0.8-1.3,1.1-2l0-0.1c0.1-0.3,0.2-0.7,0.3-1c0-0.1,0-0.1,0-0.2c0.1-0.4,0.1-0.7,0.1-1.1c0-0.4,0-0.7-0.1-1.1
			c0-0.1,0-0.1,0-0.2c-0.1-0.4-0.2-0.7-0.3-1l0-0.1c-0.3-0.7-0.6-1.4-1.1-2c0,0,0,0,0,0C-761.1,363-760.2,362.8-759.3,362.8z
			 M-772.4,367.8c0-2.8,2.2-5,5-5c1.3,0,2.5,0.5,3.5,1.4c0.1,0.1,0.1,0.1,0.2,0.2c0.2,0.2,0.3,0.4,0.5,0.6c0,0.1,0.1,0.1,0.1,0.2
			c0.1,0.2,0.3,0.4,0.4,0.7c0,0.1,0,0.1,0.1,0.2c0.1,0.3,0.2,0.5,0.2,0.8c0,0,0,0.1,0,0.1c0.1,0.6,0.1,1.3,0,1.9c0,0,0,0.1,0,0.1
			c-0.1,0.3-0.1,0.5-0.2,0.8c0,0.1,0,0.1-0.1,0.2c-0.1,0.2-0.2,0.5-0.4,0.7c0,0.1-0.1,0.1-0.1,0.2c-0.1,0.2-0.3,0.4-0.5,0.6
			c-0.1,0.1-0.1,0.1-0.2,0.2c-0.4,0.4-0.9,0.7-1.4,0.9c-0.1,0-0.2,0.1-0.2,0.1c-0.2,0.1-0.5,0.2-0.7,0.2c-0.1,0-0.1,0-0.2,0
			c-0.3,0.1-0.5,0.1-0.8,0.1h-0.1c-0.3,0-0.6,0-0.8-0.1c-0.1,0-0.1,0-0.2,0c-0.3-0.1-0.5-0.1-0.7-0.2c-0.1,0-0.2-0.1-0.2-0.1
			C-771.2,371.6-772.4,369.8-772.4,367.8z M-759.3,383.9h-16.1v-2c0-3.4,2.1-6.4,5.3-7.6c1.7,0.7,3.7,0.7,5.4,0
			c0.3,0.1,0.7,0.3,1,0.4c0.2,0.1,0.4,0.2,0.6,0.4c0.1,0.1,0.3,0.2,0.4,0.3c0.2,0.1,0.4,0.3,0.6,0.4c0.1,0.1,0.2,0.2,0.3,0.3
			c0.2,0.2,0.3,0.3,0.5,0.5c0.1,0.1,0.2,0.2,0.3,0.4c0.1,0.2,0.3,0.3,0.4,0.5c0.1,0.2,0.2,0.3,0.3,0.5c0.1,0.2,0.2,0.3,0.3,0.5
			c0.1,0.2,0.2,0.4,0.2,0.6c0.1,0.2,0.1,0.3,0.2,0.5c0.1,0.2,0.1,0.5,0.2,0.7c0,0.1,0.1,0.3,0.1,0.4c0.1,0.4,0.1,0.8,0.1,1.2
			L-759.3,383.9L-759.3,383.9z M-751.3,383.9h-6v-2c0-0.3,0-0.6,0-0.9c0-0.1,0-0.2,0-0.3c0-0.2-0.1-0.4-0.1-0.7c0-0.1,0-0.2-0.1-0.3
			c0-0.2-0.1-0.4-0.2-0.7c0-0.1,0-0.1-0.1-0.2c-0.3-0.9-0.7-1.8-1.2-2.5l0-0.1c-0.2-0.3-0.4-0.5-0.6-0.7l0,0
			c-0.2-0.2-0.4-0.5-0.6-0.7c0,0,0,0,0,0c0.3,0,0.6,0.1,0.9,0.1h0.1c0.3,0,0.5,0,0.8-0.1c0.1,0,0.2,0,0.2,0c0.2,0,0.4-0.1,0.6-0.1
			c0.1,0,0.1,0,0.2,0c0.3-0.1,0.5-0.2,0.8-0.3c3.2,1.1,5.4,4.2,5.3,7.6L-751.3,383.9L-751.3,383.9z"/>
	</g>
</g>
<g>
	<g>
		<g>
			<g>
				<g>
					<path class="st2" d="M-723.8,65.7h-9.4c-2.5,0-4.6,2.1-4.6,4.6v9.4c0,2.5,2.1,4.6,4.6,4.6h9.4c2.5,0,4.6-2.1,4.6-4.6v-9.4
						C-719.2,67.8-721.3,65.7-723.8,65.7z M-722.1,79.7c0,0.9-0.8,1.7-1.7,1.7h-9.4c-0.9,0-1.7-0.8-1.7-1.7v-9.4
						c0-0.9,0.8-1.7,1.7-1.7h9.4c0.9,0,1.7,0.8,1.7,1.7V79.7z"/>
				</g>
			</g>
			<g>
				<g>
					<path class="st2" d="M-723.8,65.7h-9.4c-2.5,0-4.6,2.1-4.6,4.6v9.4c0,2.5,2.1,4.6,4.6,4.6h9.4c2.5,0,4.6-2.1,4.6-4.6v-9.4
						C-719.2,67.8-721.3,65.7-723.8,65.7z M-722.1,79.7c0,0.9-0.8,1.7-1.7,1.7h-9.4c-0.9,0-1.7-0.8-1.7-1.7v-9.4
						c0-0.9,0.8-1.7,1.7-1.7h9.4c0.9,0,1.7,0.8,1.7,1.7V79.7z"/>
				</g>
			</g>
			<path class="st2" d="M-696.2,67.2c0-1-0.8-1.7-1.7-1.7c-1,0-1.7,0.8-1.7,1.7c0,3.4-2.7,6.1-6.1,6.1c-3.4,0-6.1-2.7-6.1-6.1
				c0-1-0.8-1.7-1.7-1.7c-1,0-1.7,0.8-1.7,1.7c0,3.3,1.6,6.2,4.3,8c-2.7,1.8-4.3,4.6-4.3,7.7c0,1,0.8,1.7,1.7,1.7
				c1,0,1.7-0.8,1.7-1.7c0-3.3,2.7-5.8,6.1-5.8c3.4,0,6.1,2.6,6.1,5.8c0,1,0.8,1.7,1.7,1.7c1,0,1.7-0.8,1.7-1.7
				c0-3.2-1.6-5.9-4.3-7.7C-697.8,73.4-696.2,70.4-696.2,67.2z"/>
			<path class="st2" d="M-691,65.2c-1,0-1.7,0.8-1.7,1.7v15.7c0,1,0.8,1.7,1.7,1.7c1,0,1.7-0.8,1.7-1.7V66.9
				C-689.2,66-690,65.2-691,65.2z"/>
			<path class="st2" d="M-672.2,65.2h-11.8c-1,0-1.7,0.8-1.7,1.7v15.7c0,1,0.8,1.7,1.7,1.7c1,0,1.7-0.8,1.7-1.7v-6.1h10.1
				c3.1,0,5.7-2.5,5.7-5.7C-666.5,67.7-669,65.2-672.2,65.2z M-670,70.9c0,1.2-1,2.2-2.2,2.2h-10.1v-4.4h10.1
				C-670.9,68.7-670,69.7-670,70.9z"/>
			<path class="st2" d="M-645.5,65.4c-1,0-1.7,0.8-1.7,1.7V75c0,3.4-2.7,6.1-6.1,6.1c-3.4,0-6.1-2.7-6.1-6.1v-7.9
				c0-1-0.8-1.7-1.7-1.7c-1,0-1.7,0.8-1.7,1.7V75c0,5.3,4.3,9.6,9.6,9.6c5.3,0,9.6-4.3,9.6-9.6v-7.9
				C-643.8,66.2-644.5,65.4-645.5,65.4z"/>
			<path class="st2" d="M-626.7,80.7h-10.1V67.2c0-1-0.8-1.7-1.7-1.7c-1,0-1.7,0.8-1.7,1.7v15.3c0,1,0.8,1.7,1.7,1.7h11.8
				c1,0,1.7-0.8,1.7-1.7C-625,81.5-625.7,80.7-626.7,80.7z"/>
		</g>
	</g>
	<g>
		<path class="st2" d="M-767.2,80.4c-0.6,0-1.2-0.3-1.5-0.9l-4.3-7.7h-2.4c-1,0-1.7-0.8-1.7-1.7c0-1,0.8-1.7,1.7-1.7h3.4
			c0.6,0,1.2,0.3,1.5,0.9l3.3,5.9l12.5-22.4c0.3-0.5,0.9-0.9,1.5-0.9h4.6c1,0,1.7,0.8,1.7,1.7c0,1-0.8,1.7-1.7,1.7h-3.6l-13.5,24.2
			C-766,80.1-766.6,80.4-767.2,80.4C-767.2,80.4-767.2,80.4-767.2,80.4z"/>
		<g>
			<path class="st3" d="M-776.1,89.4c-4.1,0-7.4-3.3-7.4-7.4V63.8c0-4.1,3.3-7.4,7.4-7.4h16.5l-1.4,2.5h-15.1
				c-2.7,0-4.8,2.2-4.8,4.8V82c0,2.7,2.2,4.8,4.8,4.8h18.3c2.7,0,4.8-2.2,4.8-4.8V63.8c0-0.6-0.1-1.2-0.3-1.8l1.4-2.6
				c1,1.3,1.5,2.8,1.5,4.4V82c0,4.1-3.3,7.4-7.4,7.4H-776.1z"/>
		</g>
	</g>
</g>
<g>
	<text transform="matrix(1 0 0 1 -727.5327 325.1892)" class="st5" style="font-family:'DINPro-Medium'; font-size:15px;">Gráficos</text>
</g>
<g>
	<text transform="matrix(1 0 0 1 -726.9399 437.8562)" class="st5" style="font-family:'DINPro-Medium'; font-size:15px;">Pacientes</text>
</g>
<line class="st4" x1="-799" y1="105.7" x2="-528" y2="105.7"/>
<line class="st4" x1="-799" y1="286.2" x2="-528" y2="286.2"/>
<g>
	<g>
		<g>
			<path class="st1" d="M-763.3,136.7c-3.6,0-6.6,3-6.6,6.6c0,3.6,3,6.6,6.6,6.6c3.6,0,6.6-3,6.6-6.6
				C-756.7,139.7-759.7,136.7-763.3,136.7z M-763.3,148.5c-2.8,0-5.1-2.3-5.1-5.1c0-2.8,2.3-5.1,5.1-5.1s5.1,2.3,5.1,5.1
				C-758.2,146.2-760.5,148.5-763.3,148.5z"/>
		</g>
	</g>
	<g>
		<g>
			<path class="st1" d="M-761.3,151.5h-4.1c-3.4,0-6.7,1.6-9,4.9v5.4h22v-5.4C-754.6,153-757.9,151.5-761.3,151.5z M-753.8,160.3
				L-753.8,160.3h-19.1v-3.5c1.7-2.4,4.5-3.9,7.5-3.9h4.1c3,0,5.8,1.5,7.5,3.9V160.3L-753.8,160.3z"/>
		</g>
	</g>
</g>
<g>
	<path class="st1" d="M-754.9,193.5c-2.3-2.3-5.3-3.5-8.5-3.5c-3.2,0-6.2,1.2-8.5,3.5c-2.3,2.3-3.5,5.3-3.5,8.5
		c0,3.2,1.2,6.2,3.5,8.5c2.3,2.3,5.3,3.5,8.5,3.5c3.2,0,6.2-1.2,8.5-3.5s3.5-5.3,3.5-8.5C-751.3,198.7-752.6,195.7-754.9,193.5
		L-754.9,193.5z M-763.3,212.5c-5.8,0-10.6-4.8-10.6-10.6s4.8-10.6,10.6-10.6c5.8,0,10.6,4.8,10.6,10.6S-757.5,212.5-763.3,212.5
		L-763.3,212.5z"/>
	<path class="st1" d="M-763.3,198c-2.2,0-4,1.8-4,4c0,2.2,1.8,4,4,4c2.2,0,4-1.8,4-4C-759.4,199.7-761.1,198-763.3,198z
		 M-763.3,204.5c-1.4,0-2.6-1.2-2.6-2.6s1.2-2.6,2.6-2.6c1.4,0,2.6,1.2,2.6,2.6S-761.9,204.5-763.3,204.5z"/>
	<path class="st1" d="M-754.8,199.8l-1.7-0.3c-0.1-0.2-0.2-0.5-0.3-0.7l1-1.5c0.2-0.3,0.1-0.7-0.1-0.9l-2-2
		c-0.2-0.2-0.6-0.3-0.9-0.1l-1.5,1c-0.2-0.1-0.4-0.2-0.7-0.3l-0.3-1.7c-0.1-0.3-0.4-0.6-0.7-0.6h-2.8c-0.3,0-0.6,0.2-0.7,0.6
		l-0.3,1.7c-0.2,0.1-0.5,0.2-0.7,0.3l-1.5-1c-0.3-0.2-0.7-0.1-0.9,0.1l-2,2c-0.2,0.2-0.3,0.6-0.1,0.9l1,1.5
		c-0.1,0.2-0.2,0.4-0.3,0.7l-1.7,0.3c-0.3,0.1-0.6,0.4-0.6,0.7v2.8c0,0.3,0.2,0.6,0.6,0.7l1.7,0.3c0.1,0.2,0.2,0.5,0.3,0.7l-1,1.5
		c-0.2,0.3-0.1,0.7,0.1,0.9l2,2c0.2,0.2,0.6,0.3,0.9,0.1l1.5-1c0.2,0.1,0.4,0.2,0.7,0.3l0.3,1.7c0.1,0.3,0.4,0.6,0.7,0.6h2.8
		c0.3,0,0.6-0.2,0.7-0.6l0.3-1.7c0.2-0.1,0.5-0.2,0.7-0.3l1.5,1c0.3,0.2,0.7,0.1,0.9-0.1l2-2c0.2-0.2,0.3-0.6,0.1-0.9l-1-1.5
		c0.1-0.2,0.2-0.4,0.3-0.7l1.7-0.3c0.3-0.1,0.6-0.4,0.6-0.7v-2.8C-754.2,200.2-754.4,199.9-754.8,199.8L-754.8,199.8z M-755.6,202.8
		l-1.6,0.3c-0.3,0.1-0.5,0.2-0.5,0.5c-0.1,0.4-0.3,0.8-0.5,1.2c-0.1,0.2-0.1,0.5,0,0.7l0.9,1.3l-1.2,1.2l-1.3-0.9
		c-0.2-0.1-0.5-0.2-0.7,0c-0.4,0.2-0.8,0.4-1.2,0.5c-0.3,0.1-0.4,0.3-0.5,0.5l-0.3,1.6h-1.7l-0.3-1.6c-0.1-0.3-0.2-0.5-0.5-0.5
		c-0.4-0.1-0.8-0.3-1.2-0.5c-0.2-0.1-0.5-0.1-0.7,0l-1.3,0.9l-1.2-1.2l0.9-1.3c0.1-0.2,0.2-0.5,0-0.7c-0.2-0.4-0.4-0.8-0.5-1.2
		c-0.1-0.3-0.3-0.4-0.5-0.5l-1.6-0.3v-1.7l1.6-0.3c0.3-0.1,0.5-0.2,0.5-0.5c0.1-0.4,0.3-0.8,0.5-1.2c0.1-0.2,0.1-0.5,0-0.7l-0.9-1.3
		l1.2-1.2l1.3,0.9c0.2,0.1,0.5,0.2,0.7,0c0.4-0.2,0.8-0.4,1.2-0.5c0.3-0.1,0.4-0.3,0.5-0.5l0.3-1.6h1.7l0.3,1.6
		c0.1,0.3,0.2,0.5,0.5,0.5c0.4,0.1,0.8,0.3,1.2,0.5c0.2,0.1,0.5,0.1,0.7,0l1.3-0.9l1.2,1.2l-0.9,1.3c-0.1,0.2-0.2,0.5,0,0.7
		c0.2,0.4,0.4,0.8,0.5,1.2c0.1,0.3,0.3,0.4,0.5,0.5l1.6,0.3V202.8z"/>
</g>
<g>
	<path class="st1" d="M-762.3,265.2l8.2-8.2l1.1,1.1l-8.2,8.2L-762.3,265.2z"/>
	<path class="st1" d="M-757.7,268.3c-3.7,0-6.7-3-6.7-6.7c0-3.7,3-6.7,6.7-6.7c3.7,0,6.7,3,6.7,6.7
		C-751,265.3-754,268.3-757.7,268.3z M-757.7,256.5c-2.8,0-5.1,2.3-5.1,5.1s2.3,5.1,5.1,5.1c2.8,0,5.1-2.3,5.1-5.1
		S-754.9,256.5-757.7,256.5z"/>
	<path class="st1" d="M-767.2,264.2h-6.2c-1.3,0-2.3-1-2.3-2.3v-8.7c0-1.3,1-2.3,2.3-2.3h11.8c0.7,0,1.3,0.3,1.7,0.8
		c0.3,0.3,0.2,0.8-0.1,1.1c-0.3,0.3-0.8,0.2-1.1-0.1c-0.1-0.2-0.3-0.3-0.6-0.3h-11.8c-0.4,0-0.8,0.3-0.8,0.8v8.7
		c0,0.4,0.3,0.8,0.8,0.8h6.2c0.4,0,0.8,0.3,0.8,0.8C-766.4,263.9-766.8,264.2-767.2,264.2z"/>
	<path class="st1" d="M-763.1,252.4c-0.4,0-0.8-0.3-0.8-0.8v-2.8c0-2-1.6-3.6-3.6-3.6c-2,0-3.6,1.6-3.6,3.6v2.8
		c0,0.4-0.3,0.8-0.8,0.8s-0.8-0.3-0.8-0.8v-2.8c0-2.8,2.3-5.1,5.1-5.1c2.8,0,5.1,2.3,5.1,5.1v2.8
		C-762.3,252.1-762.7,252.4-763.1,252.4z"/>
</g>
<path class="st5" d="M-763.3,444.1c-0.4,0-0.8-0.1-1.1-0.4c-1.1-1-2.2-1.9-3.1-2.7l0,0c-2.8-2.4-5.2-4.4-6.8-6.4
	c-1.9-2.2-2.7-4.4-2.7-6.7c0-2.3,0.8-4.3,2.2-5.9c1.4-1.5,3.4-2.4,5.5-2.4c1.6,0,3,0.5,4.3,1.5c0.6,0.5,1.2,1.1,1.7,1.8
	c0.5-0.7,1.1-1.3,1.7-1.8c1.3-1,2.7-1.5,4.3-1.5c2.1,0,4.1,0.8,5.5,2.4c1.4,1.5,2.2,3.6,2.2,5.9c0,2.3-0.9,4.4-2.7,6.7
	c-1.7,2-4.1,4-6.8,6.4c-0.9,0.8-2,1.7-3.1,2.7C-762.6,444-762.9,444.1-763.3,444.1z M-769.4,421.3c-1.7,0-3.2,0.7-4.3,1.9
	c-1.1,1.2-1.8,2.9-1.8,4.8c0,2,0.7,3.7,2.4,5.7c1.6,1.9,3.9,3.9,6.6,6.2l0,0c0.9,0.8,2,1.7,3.1,2.7c1.1-1,2.2-1.9,3.1-2.7
	c2.7-2.3,5-4.3,6.6-6.2c1.6-2,2.4-3.7,2.4-5.7c0-1.9-0.6-3.5-1.8-4.8c-1.1-1.2-2.6-1.9-4.3-1.9c-1.2,0-2.3,0.4-3.3,1.2
	c-0.9,0.7-1.5,1.5-1.9,2.1c-0.2,0.3-0.5,0.5-0.9,0.5c-0.4,0-0.7-0.2-0.9-0.5c-0.4-0.6-1-1.5-1.9-2.1
	C-767.1,421.7-768.2,421.3-769.4,421.3z"/>
<g>
	<g>
		<text transform="matrix(1 0 0 1 -727.165 500.1892)" class="st5" style="font-family:'DINPro-Medium'; font-size:15px;">Alertas</text>
	</g>
	<g>
		<g>
			<g>
				<path class="st1" d="M-747.8,500l-12.2-21.2c-0.7-1.2-1.9-1.9-3.3-1.9s-2.6,0.7-3.3,1.9l-12.2,21.2c-0.7,1.2-0.7,2.6,0,3.8
					c0.7,1.2,1.9,1.9,3.3,1.9h24.5c1.4,0,2.6-0.7,3.3-1.9C-747.2,502.6-747.2,501.2-747.8,500z M-749.5,502.8
					c-0.3,0.6-1,0.9-1.6,0.9h-24.5c-0.7,0-1.3-0.4-1.6-0.9c-0.3-0.6-0.3-1.3,0-1.9l12.2-21.2c0.3-0.6,1-0.9,1.6-0.9s1.3,0.4,1.6,0.9
					l12.2,21.2C-749.1,501.5-749.1,502.2-749.5,502.8z"/>
			</g>
		</g>
		<g>
			<g>
				<rect x="-764.3" y="486.3" class="st1" width="1.9" height="9.4"/>
			</g>
		</g>
	</g>
	<g>
		<g>
			<path class="st1" d="M-763,497.5c-0.7,0-1.2,0.6-1.2,1.2s0.6,1.2,1.2,1.2c0.7,0,1.2-0.6,1.2-1.2S-762.3,497.5-763,497.5z"/>
		</g>
	</g>
</g>
<g>
	<g>
		<path class="st5" d="M-746.5,327.6l-1.9-1.9c-0.3-0.3-0.7-0.3-0.9,0c-0.3,0.3-0.3,0.7,0,0.9l0.8,0.8h-2.3v-5
			c0.6,0.2,1.3,0.3,2,0.3c0.4,0,0.7-0.3,0.7-0.7c0-0.4-0.3-0.7-0.7-0.7c-0.7,0-1.3-0.1-2-0.4v-4.9h2c0.4,0,0.7-0.3,0.7-0.7
			c0-0.4-0.3-0.7-0.7-0.7h-2V308c0.9,0.6,1.5,1.1,1.6,1.1c0.1,0.1,0.3,0.2,0.4,0.2c0.2,0,0.4-0.1,0.5-0.2c0.2-0.3,0.2-0.7-0.1-0.9
			c0,0-1.2-1-2.8-1.8c0,0,0,0,0,0c-1.4-0.6-2.7-1-3.9-1h0c-0.7,0-1.4,0.1-2,0.3c-0.2,0.1-0.3,0.2-0.4,0.3c-0.1,0.2-0.1,0.3,0,0.5
			c0.1,0.3,0.3,0.5,0.6,0.5c0.1,0,0.1,0,0.2,0c0.5-0.2,1.1-0.3,1.6-0.3c0.8,0,2,0.3,3,0.7v12.9c-0.3-0.2-0.7-0.5-1-0.8
			c-1.3-1-2.7-2.1-4.7-2.1c-2.5,0-4.5,0.8-6.2,1.8l0,0c0.6-1,1-2,1.5-3.1h0.5c0.4,0,0.7-0.3,0.7-0.7c0-0.4-0.3-0.7-0.7-0.7
			c0.1-0.3,0.2-0.6,0.3-0.9c0.4-1.2,0.8-2.3,1.3-3.2c0.2-0.3,0-0.7-0.3-0.9c-0.1,0-0.2-0.1-0.3-0.1c-0.2,0-0.5,0.1-0.6,0.4
			c-0.5,1-1,2.2-1.4,3.5c-0.1,0.4-0.3,0.9-0.4,1.3h-1.3c-0.4,0-0.7,0.3-0.7,0.7c0,0.4,0.3,0.7,0.7,0.7h0.7c-1.2,2.9-2.9,5.2-4.9,7.1
			c0,0,0,0,0,0c-3.2,2.9-6.6,3.8-8,4.1v-11.2h1.6c0.4,0,0.7-0.3,0.7-0.7c0-0.4-0.3-0.7-0.7-0.7h-1.6v-12.1l0.8,0.8
			c0.1,0.1,0.3,0.2,0.5,0.2c0.2,0,0.3-0.1,0.5-0.2c0.3-0.3,0.3-0.7,0-0.9l-1.9-1.9c-0.3-0.3-0.7-0.3-0.9,0l-1.9,1.9
			c-0.3,0.3-0.3,0.7,0,0.9c0.3,0.3,0.7,0.3,0.9,0l0.8-0.8v24.7h-1.3c-0.4,0-0.7,0.3-0.7,0.7s0.3,0.7,0.7,0.7h1.3v1.3
			c0,0.4,0.3,0.7,0.7,0.7c0.4,0,0.7-0.3,0.7-0.7v-1.3h28.5l-0.8,0.8c-0.3,0.3-0.3,0.7,0,0.9c0.1,0.1,0.3,0.2,0.5,0.2
			c0.2,0,0.3-0.1,0.5-0.2l1.9-1.9C-746.3,328.3-746.3,327.8-746.5,327.6L-746.5,327.6z M-752.2,327.4h-20.8c1.5-0.7,3.2-1.7,4.9-3.2
			c0.5-0.4,0.9-0.8,1.4-1.2c2.2-2,4.6-4.2,8.8-4.2c1.6,0,2.7,0.8,3.9,1.8c0.6,0.4,1.2,0.9,1.8,1.3V327.4z"/>
		<path class="st5" d="M-771.5,316.1h2.7c0.4,0,0.7-0.3,0.7-0.7c0-0.4-0.3-0.7-0.7-0.7h-2.7c-0.4,0-0.7,0.3-0.7,0.7
			C-772.2,315.8-771.9,316.1-771.5,316.1z"/>
		<path class="st5" d="M-758.2,316.1h2.7c0.4,0,0.7-0.3,0.7-0.7c0-0.4-0.3-0.7-0.7-0.7h-2.7c-0.4,0-0.7,0.3-0.7,0.7
			C-758.9,315.8-758.6,316.1-758.2,316.1z"/>
		<circle class="st5" cx="-759.5" cy="307.9" r="0.7"/>
	</g>
</g>
<rect x="-465" y="34.7" class="st0" width="291" height="923.8"/>
<polygon class="st1" points="-210,154.7 -214,154.7 -212,151.3 -210,148 -208,151.3 -206,154.7 "/>
<polygon class="st0" points="200.2,182.9 196.2,182.9 198.2,179.5 200.2,176.1 202.2,179.5 204.2,182.9 "/>
<g>
	<text transform="matrix(1 0 0 1 -382.7675 156.1892)" class="st5" style="font-family:'DINPro-Medium'; font-size:15px;">Daniel Pardo</text>
</g>
<g>
	<text transform="matrix(1 0 0 1 -380.2778 261.1892)" class="st5" style="font-family:'DINPro-Medium'; font-size:15px;">Cerrar Sesión</text>
</g>
<g>
	<text transform="matrix(1 0 0 1 -382.7378 380.5227)" class="st5" style="font-family:'DINPro-Medium'; font-size:15px;">Usuarios</text>
</g>
<g>
	<g>
		<path class="st1" d="M-410.6,373c2.9-2.6,3.1-7,0.5-9.9c-2.4-2.6-6.4-3.1-9.3-1c-3.2-2.2-7.6-1.5-9.8,1.7c-2.1,2.9-1.6,6.9,1,9.3
			c-3.3,1.7-5.3,5.1-5.3,8.9v3c0,0.6,0.4,1,1,1h26.1c0.6,0,1-0.4,1-1v-3C-405.3,378.1-407.3,374.7-410.6,373z M-415.3,362.8
			c2.8,0,5,2.2,5,5c0,2-1.2,3.8-3,4.6c-0.1,0-0.2,0.1-0.2,0.1c-0.2,0.1-0.5,0.2-0.8,0.2c-0.1,0-0.1,0-0.2,0
			c-0.3,0.1-0.6,0.1-0.9,0.1c-0.1,0-0.3,0-0.4,0c-0.1,0-0.1,0-0.2,0c-0.6-0.1-1.1-0.2-1.6-0.5c0,0,0,0-0.1,0c-0.1,0-0.2-0.1-0.3-0.1
			c0,0,0,0,0,0c0.5-0.6,0.8-1.3,1.1-2l0-0.1c0.1-0.3,0.2-0.7,0.3-1c0-0.1,0-0.1,0-0.2c0.1-0.4,0.1-0.7,0.1-1.1c0-0.4,0-0.7-0.1-1.1
			c0-0.1,0-0.1,0-0.2c-0.1-0.4-0.2-0.7-0.3-1l0-0.1c-0.3-0.7-0.6-1.4-1.1-2c0,0,0,0,0,0C-417.1,363-416.2,362.8-415.3,362.8z
			 M-428.4,367.8c0-2.8,2.2-5,5-5c1.3,0,2.5,0.5,3.5,1.4c0.1,0.1,0.1,0.1,0.2,0.2c0.2,0.2,0.3,0.4,0.5,0.6c0,0.1,0.1,0.1,0.1,0.2
			c0.1,0.2,0.3,0.4,0.4,0.7c0,0.1,0,0.1,0.1,0.2c0.1,0.3,0.2,0.5,0.2,0.8c0,0,0,0.1,0,0.1c0.1,0.6,0.1,1.3,0,1.9c0,0,0,0.1,0,0.1
			c-0.1,0.3-0.1,0.5-0.2,0.8c0,0.1,0,0.1-0.1,0.2c-0.1,0.2-0.2,0.5-0.4,0.7c0,0.1-0.1,0.1-0.1,0.2c-0.1,0.2-0.3,0.4-0.5,0.6
			c-0.1,0.1-0.1,0.1-0.2,0.2c-0.4,0.4-0.9,0.7-1.4,0.9c-0.1,0-0.2,0.1-0.2,0.1c-0.2,0.1-0.5,0.2-0.7,0.2c-0.1,0-0.1,0-0.2,0
			c-0.3,0.1-0.5,0.1-0.8,0.1h-0.1c-0.3,0-0.6,0-0.8-0.1c-0.1,0-0.1,0-0.2,0c-0.3-0.1-0.5-0.1-0.7-0.2c-0.1,0-0.2-0.1-0.2-0.1
			C-427.2,371.6-428.4,369.8-428.4,367.8z M-415.3,383.9h-16.1v-2c0-3.4,2.1-6.4,5.3-7.6c1.7,0.7,3.7,0.7,5.4,0
			c0.3,0.1,0.7,0.3,1,0.4c0.2,0.1,0.4,0.2,0.6,0.4c0.1,0.1,0.3,0.2,0.4,0.3c0.2,0.1,0.4,0.3,0.6,0.4c0.1,0.1,0.2,0.2,0.3,0.3
			c0.2,0.2,0.3,0.3,0.5,0.5c0.1,0.1,0.2,0.2,0.3,0.4c0.1,0.2,0.3,0.3,0.4,0.5c0.1,0.2,0.2,0.3,0.3,0.5c0.1,0.2,0.2,0.3,0.3,0.5
			c0.1,0.2,0.2,0.4,0.2,0.6c0.1,0.2,0.1,0.3,0.2,0.5c0.1,0.2,0.1,0.5,0.2,0.7c0,0.1,0.1,0.3,0.1,0.4c0.1,0.4,0.1,0.8,0.1,1.2
			L-415.3,383.9L-415.3,383.9z M-407.3,383.9h-6v-2c0-0.3,0-0.6,0-0.9c0-0.1,0-0.2,0-0.3c0-0.2-0.1-0.4-0.1-0.7c0-0.1,0-0.2-0.1-0.3
			c0-0.2-0.1-0.4-0.2-0.7c0-0.1,0-0.1-0.1-0.2c-0.3-0.9-0.7-1.8-1.2-2.5l0-0.1c-0.2-0.3-0.4-0.5-0.6-0.7l0,0
			c-0.2-0.2-0.4-0.5-0.6-0.7c0,0,0,0,0,0c0.3,0,0.6,0.1,0.9,0.1h0.1c0.3,0,0.5,0,0.8-0.1c0.1,0,0.2,0,0.2,0c0.2,0,0.4-0.1,0.6-0.1
			c0.1,0,0.1,0,0.2,0c0.3-0.1,0.5-0.2,0.8-0.3c3.2,1.1,5.4,4.2,5.3,7.6L-407.3,383.9L-407.3,383.9z"/>
	</g>
</g>
<g>
	<g>
		<g>
			<g>
				<g>
					<path class="st2" d="M-379.8,65.7h-9.4c-2.5,0-4.6,2.1-4.6,4.6v9.4c0,2.5,2.1,4.6,4.6,4.6h9.4c2.5,0,4.6-2.1,4.6-4.6v-9.4
						C-375.2,67.8-377.3,65.7-379.8,65.7z M-378.1,79.7c0,0.9-0.8,1.7-1.7,1.7h-9.4c-0.9,0-1.7-0.8-1.7-1.7v-9.4
						c0-0.9,0.8-1.7,1.7-1.7h9.4c0.9,0,1.7,0.8,1.7,1.7V79.7z"/>
				</g>
			</g>
			<g>
				<g>
					<path class="st2" d="M-379.8,65.7h-9.4c-2.5,0-4.6,2.1-4.6,4.6v9.4c0,2.5,2.1,4.6,4.6,4.6h9.4c2.5,0,4.6-2.1,4.6-4.6v-9.4
						C-375.2,67.8-377.3,65.7-379.8,65.7z M-378.1,79.7c0,0.9-0.8,1.7-1.7,1.7h-9.4c-0.9,0-1.7-0.8-1.7-1.7v-9.4
						c0-0.9,0.8-1.7,1.7-1.7h9.4c0.9,0,1.7,0.8,1.7,1.7V79.7z"/>
				</g>
			</g>
			<path class="st2" d="M-352.2,67.2c0-1-0.8-1.7-1.7-1.7c-1,0-1.7,0.8-1.7,1.7c0,3.4-2.7,6.1-6.1,6.1c-3.4,0-6.1-2.7-6.1-6.1
				c0-1-0.8-1.7-1.7-1.7c-1,0-1.7,0.8-1.7,1.7c0,3.3,1.6,6.2,4.3,8c-2.7,1.8-4.3,4.6-4.3,7.7c0,1,0.8,1.7,1.7,1.7
				c1,0,1.7-0.8,1.7-1.7c0-3.3,2.7-5.8,6.1-5.8c3.4,0,6.1,2.6,6.1,5.8c0,1,0.8,1.7,1.7,1.7c1,0,1.7-0.8,1.7-1.7
				c0-3.2-1.6-5.9-4.3-7.7C-353.8,73.4-352.2,70.4-352.2,67.2z"/>
			<path class="st2" d="M-347,65.2c-1,0-1.7,0.8-1.7,1.7v15.7c0,1,0.8,1.7,1.7,1.7c1,0,1.7-0.8,1.7-1.7V66.9
				C-345.2,66-346,65.2-347,65.2z"/>
			<path class="st2" d="M-328.2,65.2h-11.8c-1,0-1.7,0.8-1.7,1.7v15.7c0,1,0.8,1.7,1.7,1.7c1,0,1.7-0.8,1.7-1.7v-6.1h10.1
				c3.1,0,5.7-2.5,5.7-5.7C-322.5,67.7-325,65.2-328.2,65.2z M-326,70.9c0,1.2-1,2.2-2.2,2.2h-10.1v-4.4h10.1
				C-326.9,68.7-326,69.7-326,70.9z"/>
			<path class="st2" d="M-301.5,65.4c-1,0-1.7,0.8-1.7,1.7V75c0,3.4-2.7,6.1-6.1,6.1c-3.4,0-6.1-2.7-6.1-6.1v-7.9
				c0-1-0.8-1.7-1.7-1.7c-1,0-1.7,0.8-1.7,1.7V75c0,5.3,4.3,9.6,9.6,9.6c5.3,0,9.6-4.3,9.6-9.6v-7.9
				C-299.8,66.2-300.5,65.4-301.5,65.4z"/>
			<path class="st2" d="M-282.7,80.7h-10.1V67.2c0-1-0.8-1.7-1.7-1.7c-1,0-1.7,0.8-1.7,1.7v15.3c0,1,0.8,1.7,1.7,1.7h11.8
				c1,0,1.7-0.8,1.7-1.7C-281,81.5-281.7,80.7-282.7,80.7z"/>
		</g>
	</g>
	<g>
		<path class="st2" d="M-423.2,80.4c-0.6,0-1.2-0.3-1.5-0.9l-4.3-7.7h-2.4c-1,0-1.7-0.8-1.7-1.7c0-1,0.8-1.7,1.7-1.7h3.4
			c0.6,0,1.2,0.3,1.5,0.9l3.3,5.9l12.5-22.4c0.3-0.5,0.9-0.9,1.5-0.9h4.6c1,0,1.7,0.8,1.7,1.7c0,1-0.8,1.7-1.7,1.7h-3.6l-13.5,24.2
			C-422,80.1-422.6,80.4-423.2,80.4C-423.2,80.4-423.2,80.4-423.2,80.4z"/>
		<g>
			<path class="st3" d="M-432.1,89.4c-4.1,0-7.4-3.3-7.4-7.4V63.8c0-4.1,3.3-7.4,7.4-7.4h16.5l-1.4,2.5h-15.1
				c-2.7,0-4.8,2.2-4.8,4.8V82c0,2.7,2.2,4.8,4.8,4.8h18.3c2.7,0,4.8-2.2,4.8-4.8V63.8c0-0.6-0.1-1.2-0.3-1.8l1.4-2.6
				c1,1.3,1.5,2.8,1.5,4.4V82c0,4.1-3.3,7.4-7.4,7.4H-432.1z"/>
		</g>
	</g>
</g>
<g>
	<g>
		<g>
			<g>
				<g>
					<path class="st2" d="M14,3H4.6C2.1,3,0,5.1,0,7.6V17c0,2.5,2.1,4.6,4.6,4.6H14c2.5,0,4.6-2.1,4.6-4.6V7.6C18.7,5.1,16.6,3,14,3
						z M15.7,17c0,0.9-0.8,1.7-1.7,1.7H4.6c-0.9,0-1.7-0.8-1.7-1.7V7.6c0-0.9,0.8-1.7,1.7-1.7H14c0.9,0,1.7,0.8,1.7,1.7V17z"/>
				</g>
			</g>
			<g>
				<g>
					<path class="st2" d="M14,3H4.6C2.1,3,0,5.1,0,7.6V17c0,2.5,2.1,4.6,4.6,4.6H14c2.5,0,4.6-2.1,4.6-4.6V7.6C18.7,5.1,16.6,3,14,3
						z M15.7,17c0,0.9-0.8,1.7-1.7,1.7H4.6c-0.9,0-1.7-0.8-1.7-1.7V7.6c0-0.9,0.8-1.7,1.7-1.7H14c0.9,0,1.7,0.8,1.7,1.7V17z"/>
				</g>
			</g>
			<path class="st2" d="M41.7,4.5c0-1-0.8-1.7-1.7-1.7c-1,0-1.7,0.8-1.7,1.7c0,3.4-2.7,6.1-6.1,6.1c-3.4,0-6.1-2.7-6.1-6.1
				c0-1-0.8-1.7-1.7-1.7c-1,0-1.7,0.8-1.7,1.7c0,3.3,1.6,6.2,4.3,8c-2.7,1.8-4.3,4.6-4.3,7.7c0,1,0.8,1.7,1.7,1.7
				c1,0,1.7-0.8,1.7-1.7c0-3.3,2.7-5.8,6.1-5.8c3.4,0,6.1,2.6,6.1,5.8c0,1,0.8,1.7,1.7,1.7c1,0,1.7-0.8,1.7-1.7
				c0-3.2-1.6-5.9-4.3-7.7C40.1,10.7,41.7,7.7,41.7,4.5z"/>
			<path class="st2" d="M46.9,2.5c-1,0-1.7,0.8-1.7,1.7V20c0,1,0.8,1.7,1.7,1.7c1,0,1.7-0.8,1.7-1.7V4.2C48.7,3.3,47.9,2.5,46.9,2.5
				z"/>
			<path class="st2" d="M65.7,2.5H53.9c-1,0-1.7,0.8-1.7,1.7V20c0,1,0.8,1.7,1.7,1.7c1,0,1.7-0.8,1.7-1.7v-6.1h10.1
				c3.1,0,5.7-2.5,5.7-5.7C71.4,5,68.8,2.5,65.7,2.5z M67.9,8.2c0,1.2-1,2.2-2.2,2.2H55.7V6h10.1C66.9,6,67.9,7,67.9,8.2z"/>
			<path class="st2" d="M92.4,2.7c-1,0-1.7,0.8-1.7,1.7v7.9c0,3.4-2.7,6.1-6.1,6.1c-3.4,0-6.1-2.7-6.1-6.1V4.4c0-1-0.8-1.7-1.7-1.7
				c-1,0-1.7,0.8-1.7,1.7v7.9c0,5.3,4.3,9.6,9.6,9.6c5.3,0,9.6-4.3,9.6-9.6V4.4C94.1,3.5,93.3,2.7,92.4,2.7z"/>
			<path class="st2" d="M111.2,18h-10.1V4.5c0-1-0.8-1.7-1.7-1.7c-1,0-1.7,0.8-1.7,1.7v15.3c0,1,0.8,1.7,1.7,1.7h11.8
				c1,0,1.7-0.8,1.7-1.7C112.9,18.8,112.1,18,111.2,18z"/>
		</g>
	</g>
	<g>
		<path class="st2" d="M-29.4,17.7c-0.6,0-1.2-0.3-1.5-0.9l-4.3-7.7h-2.4c-1,0-1.7-0.8-1.7-1.7c0-1,0.8-1.7,1.7-1.7h3.4
			c0.6,0,1.2,0.3,1.5,0.9l3.3,5.9l12.5-22.4c0.3-0.5,0.9-0.9,1.5-0.9h4.6c1,0,1.7,0.8,1.7,1.7c0,1-0.8,1.7-1.7,1.7h-3.6l-13.5,24.2
			C-28.2,17.4-28.7,17.7-29.4,17.7C-29.4,17.7-29.4,17.7-29.4,17.7z"/>
		<g>
			<path class="st3" d="M-38.2,26.7c-4.1,0-7.4-3.3-7.4-7.4V1.1c0-4.1,3.3-7.4,7.4-7.4h16.5l-1.4,2.5h-15.1c-2.7,0-4.8,2.2-4.8,4.8
				v18.3c0,2.7,2.2,4.8,4.8,4.8h18.3c2.7,0,4.8-2.2,4.8-4.8V1.1c0-0.6-0.1-1.2-0.3-1.8l1.4-2.6c1,1.3,1.5,2.8,1.5,4.4v18.3
				c0,4.1-3.3,7.4-7.4,7.4H-38.2z"/>
		</g>
	</g>
</g>
<g>
	<text transform="matrix(1 0 0 1 -383.5327 325.1892)" class="st5" style="font-family:'DINPro-Medium'; font-size:15px;">Gráficos</text>
</g>
<g>
	<text transform="matrix(1 0 0 1 -382.9399 437.8562)" class="st5" style="font-family:'DINPro-Medium'; font-size:15px;">Pacientes</text>
</g>
<line class="st4" x1="-455" y1="105.7" x2="-184" y2="105.7"/>
<line class="st4" x1="-455" y1="286.2" x2="-184" y2="286.2"/>
<g>
	<g>
		<g>
			<path class="st1" d="M-419.3,136.7c-3.6,0-6.6,3-6.6,6.6c0,3.6,3,6.6,6.6,6.6c3.6,0,6.6-3,6.6-6.6
				C-412.7,139.7-415.7,136.7-419.3,136.7z M-419.3,148.5c-2.8,0-5.1-2.3-5.1-5.1c0-2.8,2.3-5.1,5.1-5.1s5.1,2.3,5.1,5.1
				C-414.2,146.2-416.5,148.5-419.3,148.5z"/>
		</g>
	</g>
	<g>
		<g>
			<path class="st1" d="M-417.3,151.5h-4.1c-3.4,0-6.7,1.6-9,4.9v5.4h22v-5.4C-410.6,153-413.9,151.5-417.3,151.5z M-409.8,160.3
				L-409.8,160.3h-19.1v-3.5c1.7-2.4,4.5-3.9,7.5-3.9h4.1c3,0,5.8,1.5,7.5,3.9V160.3L-409.8,160.3z"/>
		</g>
	</g>
</g>
<text transform="matrix(1 0 0 1 27.4408 184.3608)" class="st0" style="font-family:'DINPro-Medium'; font-size:15px;">Daniel Pardo</text>
<g>
	<g>
		<g>
			<path class="st0" d="M-9.1,164.9c-3.6,0-6.6,3-6.6,6.6c0,3.6,3,6.6,6.6,6.6c3.6,0,6.6-3,6.6-6.6C-2.5,167.9-5.5,164.9-9.1,164.9z
				 M-9.1,176.6c-2.8,0-5.1-2.3-5.1-5.1c0-2.8,2.3-5.1,5.1-5.1s5.1,2.3,5.1,5.1C-4,174.3-6.3,176.6-9.1,176.6z"/>
		</g>
	</g>
	<g>
		<g>
			<path class="st0" d="M-7.1,179.6h-4.1c-3.4,0-6.7,1.6-9,4.9v5.4h22v-5.4C-0.4,181.2-3.7,179.6-7.1,179.6z M0.4,188.5L0.4,188.5
				h-19.1V185c1.7-2.4,4.5-3.9,7.5-3.9h4.1c3,0,5.8,1.5,7.5,3.9V188.5L0.4,188.5z"/>
		</g>
	</g>
</g>
<g>
	<path class="st1" d="M-418.3,265.2l8.2-8.2l1.1,1.1l-8.2,8.2L-418.3,265.2z"/>
	<path class="st1" d="M-413.7,268.3c-3.7,0-6.7-3-6.7-6.7c0-3.7,3-6.7,6.7-6.7c3.7,0,6.7,3,6.7,6.7
		C-407,265.3-410,268.3-413.7,268.3z M-413.7,256.5c-2.8,0-5.1,2.3-5.1,5.1s2.3,5.1,5.1,5.1s5.1-2.3,5.1-5.1
		S-410.9,256.5-413.7,256.5z"/>
	<path class="st1" d="M-423.2,264.2h-6.1c-1.3,0-2.3-1-2.3-2.3v-8.7c0-1.3,1-2.3,2.3-2.3h11.8c0.7,0,1.3,0.3,1.7,0.8
		c0.3,0.3,0.2,0.8-0.1,1.1c-0.3,0.3-0.8,0.2-1.1-0.1c-0.1-0.2-0.3-0.3-0.6-0.3h-11.8c-0.4,0-0.8,0.3-0.8,0.8v8.7
		c0,0.4,0.3,0.8,0.8,0.8h6.1c0.4,0,0.8,0.3,0.8,0.8C-422.4,263.9-422.8,264.2-423.2,264.2z"/>
	<path class="st1" d="M-419.1,252.4c-0.4,0-0.8-0.3-0.8-0.8v-2.8c0-2-1.6-3.6-3.6-3.6c-2,0-3.6,1.6-3.6,3.6v2.8
		c0,0.4-0.3,0.8-0.8,0.8c-0.4,0-0.8-0.3-0.8-0.8v-2.8c0-2.8,2.3-5.1,5.1-5.1s5.1,2.3,5.1,5.1v2.8
		C-418.3,252.1-418.7,252.4-419.1,252.4z"/>
</g>
<g>
	<text transform="matrix(1 0 0 1 35.3306 316.7885)" class="st0" style="font-family:'DINPro-Medium'; font-size:15px;">Cerrar Sesión</text>
</g>
<g>
	<g>
		<path class="st0" d="M-2.7,320.8l8.2-8.2l1.1,1.1l-8.2,8.2L-2.7,320.8z"/>
		<path class="st0" d="M1.9,323.9c-3.7,0-6.7-3-6.7-6.7c0-3.7,3-6.7,6.7-6.7c3.7,0,6.7,3,6.7,6.7C8.6,320.9,5.6,323.9,1.9,323.9z
			 M1.9,312.1c-2.8,0-5.1,2.3-5.1,5.1c0,2.8,2.3,5.1,5.1,5.1s5.1-2.3,5.1-5.1C7,314.4,4.7,312.1,1.9,312.1z"/>
		<path class="st0" d="M-7.6,319.8h-6.2c-1.3,0-2.3-1-2.3-2.3v-8.7c0-1.3,1-2.3,2.3-2.3h11.8c0.7,0,1.3,0.3,1.7,0.8
			c0.3,0.3,0.2,0.8-0.1,1.1c-0.3,0.3-0.8,0.2-1.1-0.1c-0.1-0.2-0.3-0.3-0.6-0.3h-11.8c-0.4,0-0.8,0.3-0.8,0.8v8.7
			c0,0.4,0.3,0.8,0.8,0.8h6.2c0.4,0,0.8,0.3,0.8,0.8C-6.8,319.5-7.1,319.8-7.6,319.8z"/>
		<path class="st0" d="M-3.5,308c-0.4,0-0.8-0.3-0.8-0.8v-2.8c0-2-1.6-3.6-3.6-3.6c-2,0-3.6,1.6-3.6,3.6v2.8c0,0.4-0.3,0.8-0.8,0.8
			c-0.4,0-0.8-0.3-0.8-0.8v-2.8c0-2.8,2.3-5.1,5.1-5.1c2.8,0,5.1,2.3,5.1,5.1v2.8C-2.7,307.7-3,308-3.5,308z"/>
	</g>
</g>
<path class="st5" d="M-419.3,444.1c-0.4,0-0.8-0.1-1.1-0.4c-1.1-1-2.2-1.9-3.1-2.7l0,0c-2.8-2.4-5.2-4.4-6.8-6.4
	c-1.9-2.2-2.7-4.4-2.7-6.7c0-2.3,0.8-4.3,2.2-5.9c1.4-1.5,3.4-2.4,5.5-2.4c1.6,0,3,0.5,4.3,1.5c0.6,0.5,1.2,1.1,1.7,1.8
	c0.5-0.7,1.1-1.3,1.7-1.8c1.3-1,2.7-1.5,4.3-1.5c2.1,0,4.1,0.8,5.5,2.4c1.4,1.5,2.2,3.6,2.2,5.9c0,2.3-0.9,4.4-2.7,6.7
	c-1.7,2-4.1,4-6.8,6.4c-0.9,0.8-2,1.7-3.1,2.7C-418.6,444-418.9,444.1-419.3,444.1z M-425.4,421.3c-1.7,0-3.2,0.7-4.3,1.9
	c-1.1,1.2-1.8,2.9-1.8,4.8c0,2,0.7,3.7,2.4,5.7c1.6,1.9,3.9,3.9,6.6,6.2l0,0c0.9,0.8,2,1.7,3.1,2.7c1.1-1,2.2-1.9,3.1-2.7
	c2.7-2.3,5-4.3,6.6-6.2c1.6-2,2.4-3.7,2.4-5.7c0-1.9-0.6-3.5-1.8-4.8c-1.1-1.2-2.6-1.9-4.3-1.9c-1.2,0-2.3,0.4-3.3,1.2
	c-0.9,0.7-1.5,1.5-1.9,2.1c-0.2,0.3-0.5,0.5-0.9,0.5c-0.4,0-0.7-0.2-0.9-0.5c-0.4-0.6-1-1.5-1.9-2.1
	C-423.1,421.7-424.2,421.3-425.4,421.3z"/>
<g>
	<g>
		<text transform="matrix(1 0 0 1 -383.165 500.1892)" class="st5" style="font-family:'DINPro-Medium'; font-size:15px;">Alertas</text>
	</g>
	<g>
		<g>
			<g>
				<path class="st1" d="M-403.8,500l-12.2-21.2c-0.7-1.2-1.9-1.9-3.3-1.9c-1.4,0-2.6,0.7-3.3,1.9l-12.2,21.2
					c-0.7,1.2-0.7,2.6,0,3.8c0.7,1.2,1.9,1.9,3.3,1.9h24.5c1.4,0,2.6-0.7,3.3-1.9C-403.2,502.6-403.2,501.2-403.8,500z
					 M-405.5,502.8c-0.3,0.6-1,0.9-1.6,0.9h-24.5c-0.7,0-1.3-0.4-1.6-0.9c-0.3-0.6-0.3-1.3,0-1.9l12.2-21.2c0.3-0.6,1-0.9,1.6-0.9
					s1.3,0.4,1.6,0.9l12.2,21.2C-405.1,501.5-405.1,502.2-405.5,502.8z"/>
			</g>
		</g>
		<g>
			<g>
				<rect x="-420.3" y="486.3" class="st1" width="1.9" height="9.4"/>
			</g>
		</g>
	</g>
	<g>
		<g>
			<path class="st1" d="M-419,497.5c-0.7,0-1.2,0.6-1.2,1.2s0.6,1.2,1.2,1.2c0.7,0,1.2-0.6,1.2-1.2S-418.3,497.5-419,497.5z"/>
		</g>
	</g>
</g>
<g>
	<text transform="matrix(1 0 0 1 32.8706 436.1219)" class="st0" style="font-family:'DINPro-Medium'; font-size:15px;">Usuarios</text>
</g>
<g>
	<g>
		<g>
			<path class="st0" d="M5,428.6c2.9-2.6,3.1-7,0.5-9.9c-2.4-2.6-6.4-3.1-9.3-1c-3.2-2.2-7.6-1.5-9.8,1.7c-2.1,2.9-1.6,6.9,1,9.3
				c-3.3,1.7-5.3,5.1-5.3,8.9v3c0,0.6,0.4,1,1,1H9.3c0.6,0,1-0.4,1-1v-3C10.4,433.7,8.3,430.3,5,428.6z M0.3,418.4c2.8,0,5,2.2,5,5
				c0,2-1.2,3.8-3,4.6c-0.1,0-0.2,0.1-0.2,0.1c-0.2,0.1-0.5,0.2-0.8,0.2c-0.1,0-0.1,0-0.2,0c-0.3,0.1-0.6,0.1-0.9,0.1
				c-0.1,0-0.3,0-0.4,0c-0.1,0-0.1,0-0.2,0c-0.6-0.1-1.1-0.2-1.6-0.5c0,0,0,0-0.1,0c-0.1,0-0.2-0.1-0.3-0.1c0,0,0,0,0,0
				c0.5-0.6,0.8-1.3,1.1-2l0-0.1c0.1-0.3,0.2-0.7,0.3-1c0-0.1,0-0.1,0-0.2c0.1-0.4,0.1-0.7,0.1-1.1c0-0.4,0-0.7-0.1-1.1
				c0-0.1,0-0.1,0-0.2c-0.1-0.4-0.2-0.7-0.3-1l0-0.1c-0.3-0.7-0.6-1.4-1.1-2c0,0,0,0,0,0C-1.5,418.6-0.6,418.4,0.3,418.4z
				 M-12.8,423.4c0-2.8,2.2-5,5-5c1.3,0,2.5,0.5,3.5,1.4c0.1,0.1,0.1,0.1,0.2,0.2c0.2,0.2,0.3,0.4,0.5,0.6c0,0.1,0.1,0.1,0.1,0.2
				c0.1,0.2,0.3,0.4,0.4,0.7c0,0.1,0,0.1,0.1,0.2c0.1,0.3,0.2,0.5,0.2,0.8c0,0,0,0.1,0,0.1c0.1,0.6,0.1,1.3,0,1.9c0,0,0,0.1,0,0.1
				c-0.1,0.3-0.1,0.5-0.2,0.8c0,0.1,0,0.1-0.1,0.2c-0.1,0.2-0.2,0.5-0.4,0.7c0,0.1-0.1,0.1-0.1,0.2c-0.1,0.2-0.3,0.4-0.5,0.6
				c-0.1,0.1-0.1,0.1-0.2,0.2c-0.4,0.4-0.9,0.7-1.4,0.9c-0.1,0-0.2,0.1-0.2,0.1c-0.2,0.1-0.5,0.2-0.7,0.2c-0.1,0-0.1,0-0.2,0
				c-0.3,0.1-0.5,0.1-0.8,0.1h-0.1c-0.3,0-0.6,0-0.8-0.1c-0.1,0-0.1,0-0.2,0c-0.3-0.1-0.5-0.1-0.7-0.2c-0.1,0-0.2-0.1-0.2-0.1
				C-11.6,427.2-12.8,425.4-12.8,423.4z M0.3,439.5h-16.1v-2c0-3.4,2.1-6.4,5.3-7.6c1.7,0.7,3.7,0.7,5.4,0c0.3,0.1,0.7,0.3,1,0.4
				c0.2,0.1,0.4,0.2,0.6,0.4c0.1,0.1,0.3,0.2,0.4,0.3c0.2,0.1,0.4,0.3,0.6,0.4c0.1,0.1,0.2,0.2,0.3,0.3c0.2,0.2,0.3,0.3,0.5,0.5
				c0.1,0.1,0.2,0.2,0.3,0.4c0.1,0.2,0.3,0.3,0.4,0.5c0.1,0.2,0.2,0.3,0.3,0.5c0.1,0.2,0.2,0.3,0.3,0.5c0.1,0.2,0.2,0.4,0.2,0.6
				c0.1,0.2,0.1,0.3,0.2,0.5c0.1,0.2,0.1,0.5,0.2,0.7c0,0.1,0.1,0.3,0.1,0.4c0.1,0.4,0.1,0.8,0.1,1.2L0.3,439.5L0.3,439.5z
				 M8.3,439.5h-6v-2c0-0.3,0-0.6,0-0.9c0-0.1,0-0.2,0-0.3c0-0.2-0.1-0.4-0.1-0.7c0-0.1,0-0.2-0.1-0.3c0-0.2-0.1-0.4-0.2-0.7
				c0-0.1,0-0.1-0.1-0.2c-0.3-0.9-0.7-1.8-1.2-2.5l0-0.1c-0.2-0.3-0.4-0.5-0.6-0.7l0,0c-0.2-0.2-0.4-0.5-0.6-0.7c0,0,0,0,0,0
				c0.3,0,0.6,0.1,0.9,0.1h0.1c0.3,0,0.5,0,0.8-0.1c0.1,0,0.2,0,0.2,0c0.2,0,0.4-0.1,0.6-0.1c0.1,0,0.1,0,0.2,0
				c0.3-0.1,0.5-0.2,0.8-0.3c3.2,1.1,5.4,4.2,5.3,7.6L8.3,439.5L8.3,439.5z"/>
		</g>
	</g>
</g>
<g>
	<text transform="matrix(1 0 0 1 32.6685 493.4554)" class="st0" style="font-family:'DINPro-Medium'; font-size:15px;">Pacientes</text>
</g>
<path class="st0" d="M-3.7,499.7c-0.4,0-0.8-0.1-1.1-0.4c-1.1-1-2.2-1.9-3.1-2.7l0,0c-2.8-2.4-5.2-4.4-6.8-6.4
	c-1.9-2.2-2.7-4.4-2.7-6.7c0-2.3,0.8-4.3,2.2-5.9c1.4-1.5,3.4-2.4,5.5-2.4c1.6,0,3,0.5,4.3,1.5c0.6,0.5,1.2,1.1,1.7,1.8
	c0.5-0.7,1.1-1.3,1.7-1.8c1.3-1,2.7-1.5,4.3-1.5c2.1,0,4.1,0.8,5.5,2.4c1.4,1.5,2.2,3.6,2.2,5.9c0,2.3-0.9,4.4-2.7,6.7
	c-1.7,2-4.1,4-6.8,6.4c-0.9,0.8-2,1.7-3.1,2.7C-3,499.6-3.3,499.7-3.7,499.7z M-9.8,476.9c-1.7,0-3.2,0.7-4.3,1.9
	c-1.1,1.2-1.8,2.9-1.8,4.8c0,2,0.7,3.7,2.4,5.7c1.6,1.9,3.9,3.9,6.6,6.2l0,0c0.9,0.8,2,1.7,3.1,2.7c1.1-1,2.2-1.9,3.1-2.7
	c2.7-2.3,5-4.3,6.6-6.2c1.6-2,2.4-3.7,2.4-5.7c0-1.9-0.6-3.5-1.8-4.8c-1.1-1.2-2.6-1.9-4.3-1.9c-1.2,0-2.3,0.4-3.3,1.2
	c-0.9,0.7-1.5,1.5-1.9,2.1c-0.2,0.3-0.5,0.5-0.9,0.5s-0.7-0.2-0.9-0.5c-0.4-0.6-1-1.5-1.9-2.1C-7.4,477.3-8.6,476.9-9.8,476.9z"/>
<g>
	<g>
		<g>
			<text transform="matrix(1 0 0 1 32.4434 555.7885)" class="st0" style="font-family:'DINPro-Medium'; font-size:15px;">Alertas</text>
		</g>
		<g>
			<g>
				<g>
					<path class="st0" d="M11.8,555.6l-12.2-21.2c-0.7-1.2-1.9-1.9-3.3-1.9s-2.6,0.7-3.3,1.9l-12.2,21.2c-0.7,1.2-0.7,2.6,0,3.8
						c0.7,1.2,1.9,1.9,3.3,1.9H8.5c1.4,0,2.6-0.7,3.3-1.9C12.4,558.2,12.4,556.8,11.8,555.6z M10.1,558.4c-0.3,0.6-1,0.9-1.6,0.9
						H-16c-0.7,0-1.3-0.4-1.6-0.9c-0.3-0.6-0.3-1.3,0-1.9l12.2-21.2c0.3-0.6,1-0.9,1.6-0.9s1.3,0.4,1.6,0.9l12.2,21.2
						C10.5,557.1,10.5,557.8,10.1,558.4z"/>
				</g>
			</g>
			<g>
				<g>
					<rect x="-4.7" y="541.9" class="st0" width="1.9" height="9.4"/>
				</g>
			</g>
		</g>
		<g>
			<g>
				<path class="st0" d="M-3.4,553.1c-0.7,0-1.2,0.6-1.2,1.2s0.6,1.2,1.2,1.2c0.7,0,1.2-0.6,1.2-1.2S-2.7,553.1-3.4,553.1z"/>
			</g>
		</g>
	</g>
</g>
<g>
	<g>
		<path class="st5" d="M-402.5,327.6l-1.9-1.9c-0.3-0.3-0.7-0.3-0.9,0c-0.3,0.3-0.3,0.7,0,0.9l0.8,0.8h-2.3v-5
			c0.6,0.2,1.3,0.3,2,0.3c0.4,0,0.7-0.3,0.7-0.7c0-0.4-0.3-0.7-0.7-0.7c-0.7,0-1.3-0.1-2-0.4v-4.9h2c0.4,0,0.7-0.3,0.7-0.7
			c0-0.4-0.3-0.7-0.7-0.7h-2V308c0.9,0.6,1.5,1.1,1.6,1.1c0.1,0.1,0.3,0.2,0.4,0.2c0.2,0,0.4-0.1,0.5-0.2c0.2-0.3,0.2-0.7-0.1-0.9
			c0,0-1.2-1-2.8-1.8c0,0,0,0,0,0c-1.4-0.6-2.7-1-3.9-1h0c-0.7,0-1.4,0.1-2,0.3c-0.2,0.1-0.3,0.2-0.4,0.3c-0.1,0.2-0.1,0.3,0,0.5
			c0.1,0.3,0.3,0.5,0.6,0.5c0.1,0,0.1,0,0.2,0c0.5-0.2,1.1-0.3,1.6-0.3c0.8,0,2,0.3,3,0.7v12.9c-0.3-0.2-0.7-0.5-1-0.8
			c-1.3-1-2.7-2.1-4.7-2.1c-2.5,0-4.5,0.8-6.2,1.8l0,0c0.6-1,1-2,1.5-3.1h0.5c0.4,0,0.7-0.3,0.7-0.7c0-0.4-0.3-0.7-0.7-0.7
			c0.1-0.3,0.2-0.6,0.3-0.9c0.4-1.2,0.8-2.3,1.3-3.2c0.2-0.3,0-0.7-0.3-0.9c-0.1,0-0.2-0.1-0.3-0.1c-0.2,0-0.5,0.1-0.6,0.4
			c-0.5,1-1,2.2-1.4,3.5c-0.1,0.4-0.3,0.9-0.4,1.3h-1.3c-0.4,0-0.7,0.3-0.7,0.7c0,0.4,0.3,0.7,0.7,0.7h0.7c-1.2,2.9-2.9,5.2-4.9,7.1
			c0,0,0,0,0,0c-3.2,2.9-6.6,3.8-8,4.1v-11.2h1.6c0.4,0,0.7-0.3,0.7-0.7c0-0.4-0.3-0.7-0.7-0.7h-1.6v-12.1l0.8,0.8
			c0.1,0.1,0.3,0.2,0.5,0.2c0.2,0,0.3-0.1,0.5-0.2c0.3-0.3,0.3-0.7,0-0.9l-1.9-1.9c-0.3-0.3-0.7-0.3-0.9,0l-1.9,1.9
			c-0.3,0.3-0.3,0.7,0,0.9c0.3,0.3,0.7,0.3,0.9,0l0.8-0.8v24.7h-1.3c-0.4,0-0.7,0.3-0.7,0.7s0.3,0.7,0.7,0.7h1.3v1.3
			c0,0.4,0.3,0.7,0.7,0.7c0.4,0,0.7-0.3,0.7-0.7v-1.3h28.5l-0.8,0.8c-0.3,0.3-0.3,0.7,0,0.9c0.1,0.1,0.3,0.2,0.5,0.2
			c0.2,0,0.3-0.1,0.5-0.2l1.9-1.9C-402.3,328.3-402.3,327.8-402.5,327.6L-402.5,327.6z M-408.2,327.4h-20.8c1.5-0.7,3.2-1.7,4.9-3.2
			c0.5-0.4,0.9-0.8,1.4-1.2c2.2-2,4.6-4.2,8.8-4.2c1.6,0,2.7,0.8,3.9,1.8c0.6,0.4,1.2,0.9,1.8,1.3V327.4z"/>
		<path class="st5" d="M-427.5,316.1h2.7c0.4,0,0.7-0.3,0.7-0.7c0-0.4-0.3-0.7-0.7-0.7h-2.7c-0.4,0-0.7,0.3-0.7,0.7
			C-428.2,315.8-427.9,316.1-427.5,316.1z"/>
		<path class="st5" d="M-414.2,316.1h2.7c0.4,0,0.7-0.3,0.7-0.7c0-0.4-0.3-0.7-0.7-0.7h-2.7c-0.4,0-0.7,0.3-0.7,0.7
			C-414.9,315.8-414.6,316.1-414.2,316.1z"/>
		<circle class="st5" cx="-415.5" cy="307.9" r="0.7"/>
	</g>
</g>
<g>
	<text transform="matrix(1 0 0 1 32.0757 380.7885)" class="st0" style="font-family:'DINPro-Medium'; font-size:15px;">Gráficos</text>
</g>
<g>
	<g>
		<path class="st0" d="M13.1,383.2l-1.9-1.9c-0.3-0.3-0.7-0.3-0.9,0c-0.3,0.3-0.3,0.7,0,0.9L11,383H8.7v-5c0.6,0.2,1.3,0.3,2,0.3
			c0.4,0,0.7-0.3,0.7-0.7c0-0.4-0.3-0.7-0.7-0.7c-0.7,0-1.3-0.1-2-0.4v-4.9h2c0.4,0,0.7-0.3,0.7-0.7c0-0.4-0.3-0.7-0.7-0.7h-2v-6.8
			c0.9,0.6,1.5,1.1,1.6,1.1c0.1,0.1,0.3,0.2,0.4,0.2c0.2,0,0.4-0.1,0.5-0.2c0.2-0.3,0.2-0.7-0.1-0.9c0,0-1.2-1-2.8-1.8c0,0,0,0,0,0
			c-1.4-0.6-2.7-1-3.9-1h0c-0.7,0-1.4,0.1-2,0.3c-0.2,0.1-0.3,0.2-0.4,0.3c-0.1,0.2-0.1,0.3,0,0.5c0.1,0.3,0.3,0.5,0.6,0.5
			c0.1,0,0.1,0,0.2,0c0.5-0.2,1.1-0.3,1.6-0.3c0.8,0,2,0.3,3,0.7v12.9c-0.3-0.2-0.7-0.5-1-0.8c-1.3-1-2.7-2.1-4.7-2.1
			c-2.5,0-4.5,0.8-6.2,1.8l0,0c0.6-1,1-2,1.5-3.1h0.5c0.4,0,0.7-0.3,0.7-0.7c0-0.4-0.3-0.7-0.7-0.7c0.1-0.3,0.2-0.6,0.3-0.9
			c0.4-1.2,0.8-2.3,1.3-3.2c0.2-0.3,0-0.7-0.3-0.9c-0.1,0-0.2-0.1-0.3-0.1c-0.2,0-0.5,0.1-0.6,0.4c-0.5,1-1,2.2-1.4,3.5
			c-0.1,0.4-0.3,0.9-0.4,1.3h-1.3c-0.4,0-0.7,0.3-0.7,0.7c0,0.4,0.3,0.7,0.7,0.7h0.7c-1.2,2.9-2.9,5.2-4.9,7.1c0,0,0,0,0,0
			c-3.2,2.9-6.6,3.8-8,4.1v-11.2h1.6c0.4,0,0.7-0.3,0.7-0.7c0-0.4-0.3-0.7-0.7-0.7h-1.6v-12.1l0.8,0.8c0.1,0.1,0.3,0.2,0.5,0.2
			c0.2,0,0.3-0.1,0.5-0.2c0.3-0.3,0.3-0.7,0-0.9l-1.9-1.9c-0.3-0.3-0.7-0.3-0.9,0l-1.9,1.9c-0.3,0.3-0.3,0.7,0,0.9
			c0.3,0.3,0.7,0.3,0.9,0l0.8-0.8V383h-1.3c-0.4,0-0.7,0.3-0.7,0.7s0.3,0.7,0.7,0.7h1.3v1.3c0,0.4,0.3,0.7,0.7,0.7s0.7-0.3,0.7-0.7
			v-1.3H11l-0.8,0.8c-0.3,0.3-0.3,0.7,0,0.9c0.1,0.1,0.3,0.2,0.5,0.2c0.2,0,0.3-0.1,0.5-0.2l1.9-1.9
			C13.3,383.9,13.3,383.4,13.1,383.2L13.1,383.2z M7.4,383h-20.8c1.5-0.7,3.2-1.7,4.9-3.2c0.5-0.4,0.9-0.8,1.4-1.2
			c2.2-2,4.6-4.2,8.8-4.2c1.6,0,2.7,0.8,3.9,1.8c0.6,0.4,1.2,0.9,1.8,1.3V383z"/>
		<path class="st0" d="M-11.9,371.7h2.7c0.4,0,0.7-0.3,0.7-0.7c0-0.4-0.3-0.7-0.7-0.7h-2.7c-0.4,0-0.7,0.3-0.7,0.7
			C-12.6,371.4-12.3,371.7-11.9,371.7z"/>
		<path class="st0" d="M1.4,371.7H4c0.4,0,0.7-0.3,0.7-0.7c0-0.4-0.3-0.7-0.7-0.7H1.4c-0.4,0-0.7,0.3-0.7,0.7
			C0.7,371.4,1,371.7,1.4,371.7z"/>
		<circle class="st0" cx="0.1" cy="363.5" r="0.7"/>
	</g>
</g>
<rect x="-454.5" y="172.9" class="st6" width="271" height="58"/>
<text transform="matrix(1 0 0 1 -382.3925 207.1892)" class="st0" style="font-family:'DINPro-Medium'; font-size:15px;">Configuraciones</text>
<g>
	<path class="st0" d="M-410.9,193.5c-2.3-2.3-5.3-3.5-8.5-3.5c-3.2,0-6.2,1.2-8.5,3.5c-2.3,2.3-3.5,5.3-3.5,8.5
		c0,3.2,1.2,6.2,3.5,8.5c2.3,2.3,5.3,3.5,8.5,3.5c3.2,0,6.2-1.2,8.5-3.5s3.5-5.3,3.5-8.5C-407.3,198.7-408.6,195.7-410.9,193.5
		L-410.9,193.5z M-419.3,212.5c-5.8,0-10.6-4.8-10.6-10.6s4.8-10.6,10.6-10.6s10.6,4.8,10.6,10.6S-413.5,212.5-419.3,212.5
		L-419.3,212.5z"/>
	<path class="st0" d="M-419.3,198c-2.2,0-4,1.8-4,4c0,2.2,1.8,4,4,4c2.2,0,4-1.8,4-4C-415.4,199.7-417.1,198-419.3,198z
		 M-419.3,204.5c-1.4,0-2.6-1.2-2.6-2.6s1.2-2.6,2.6-2.6s2.6,1.2,2.6,2.6S-417.9,204.5-419.3,204.5z"/>
	<path class="st0" d="M-410.8,199.8l-1.7-0.3c-0.1-0.2-0.2-0.5-0.3-0.7l1-1.5c0.2-0.3,0.1-0.7-0.1-0.9l-2-2
		c-0.2-0.2-0.6-0.3-0.9-0.1l-1.5,1c-0.2-0.1-0.4-0.2-0.7-0.3l-0.3-1.7c-0.1-0.3-0.4-0.6-0.7-0.6h-2.8c-0.3,0-0.6,0.2-0.7,0.6
		l-0.3,1.7c-0.2,0.1-0.5,0.2-0.7,0.3l-1.5-1c-0.3-0.2-0.7-0.1-0.9,0.1l-2,2c-0.2,0.2-0.3,0.6-0.1,0.9l1,1.5
		c-0.1,0.2-0.2,0.4-0.3,0.7l-1.7,0.3c-0.3,0.1-0.6,0.4-0.6,0.7v2.8c0,0.3,0.2,0.6,0.6,0.7l1.7,0.3c0.1,0.2,0.2,0.5,0.3,0.7l-1,1.5
		c-0.2,0.3-0.1,0.7,0.1,0.9l2,2c0.2,0.2,0.6,0.3,0.9,0.1l1.5-1c0.2,0.1,0.4,0.2,0.7,0.3l0.3,1.7c0.1,0.3,0.4,0.6,0.7,0.6h2.8
		c0.3,0,0.6-0.2,0.7-0.6l0.3-1.7c0.2-0.1,0.5-0.2,0.7-0.3l1.5,1c0.3,0.2,0.7,0.1,0.9-0.1l2-2c0.2-0.2,0.3-0.6,0.1-0.9l-1-1.5
		c0.1-0.2,0.2-0.4,0.3-0.7l1.7-0.3c0.3-0.1,0.6-0.4,0.6-0.7v-2.8C-410.2,200.2-410.4,199.9-410.8,199.8L-410.8,199.8z M-411.6,202.8
		l-1.6,0.3c-0.3,0.1-0.5,0.2-0.5,0.5c-0.1,0.4-0.3,0.8-0.5,1.2c-0.1,0.2-0.1,0.5,0,0.7l0.9,1.3l-1.2,1.2l-1.3-0.9
		c-0.2-0.1-0.5-0.2-0.7,0c-0.4,0.2-0.8,0.4-1.2,0.5c-0.3,0.1-0.4,0.3-0.5,0.5l-0.3,1.6h-1.7l-0.3-1.6c-0.1-0.3-0.2-0.5-0.5-0.5
		c-0.4-0.1-0.8-0.3-1.2-0.5c-0.2-0.1-0.5-0.1-0.7,0l-1.3,0.9l-1.2-1.2l0.9-1.3c0.1-0.2,0.2-0.5,0-0.7c-0.2-0.4-0.4-0.8-0.5-1.2
		c-0.1-0.3-0.3-0.4-0.5-0.5l-1.6-0.3v-1.7l1.6-0.3c0.3-0.1,0.5-0.2,0.5-0.5c0.1-0.4,0.3-0.8,0.5-1.2c0.1-0.2,0.1-0.5,0-0.7l-0.9-1.3
		l1.2-1.2l1.3,0.9c0.2,0.1,0.5,0.2,0.7,0c0.4-0.2,0.8-0.4,1.2-0.5c0.3-0.1,0.4-0.3,0.5-0.5l0.3-1.6h1.7l0.3,1.6
		c0.1,0.3,0.2,0.5,0.5,0.5c0.4,0.1,0.8,0.3,1.2,0.5c0.2,0.1,0.5,0.1,0.7,0l1.3-0.9l1.2,1.2l-0.9,1.3c-0.1,0.2-0.2,0.5,0,0.7
		c0.2,0.4,0.4,0.8,0.5,1.2c0.1,0.3,0.3,0.4,0.5,0.5l1.6,0.3V202.8z"/>
</g>
<text transform="matrix(1 0 0 1 33.2158 262.7885)" class="st0" style="font-family:'DINPro-Medium'; font-size:15px;">Configuraciones</text>
<g>
	<path class="st0" d="M4.8,249.1c-2.3-2.3-5.3-3.5-8.5-3.5s-6.2,1.2-8.5,3.5c-2.3,2.3-3.5,5.3-3.5,8.5c0,3.2,1.2,6.2,3.5,8.5
		c2.3,2.3,5.3,3.5,8.5,3.5s6.2-1.2,8.5-3.5c2.3-2.3,3.5-5.3,3.5-8.5C8.3,254.3,7,251.3,4.8,249.1L4.8,249.1z M-3.7,268.1
		c-5.8,0-10.6-4.8-10.6-10.6c0-5.8,4.8-10.6,10.6-10.6s10.6,4.8,10.6,10.6C6.9,263.4,2.1,268.1-3.7,268.1L-3.7,268.1z"/>
	<path class="st0" d="M-3.7,253.6c-2.2,0-4,1.8-4,4c0,2.2,1.8,4,4,4s4-1.8,4-4C0.3,255.3-1.5,253.6-3.7,253.6z M-3.7,260.1
		c-1.4,0-2.6-1.2-2.6-2.6c0-1.4,1.2-2.6,2.6-2.6s2.6,1.2,2.6,2.6C-1.2,259-2.3,260.1-3.7,260.1z"/>
	<path class="st0" d="M4.8,255.4l-1.7-0.3c-0.1-0.2-0.2-0.5-0.3-0.7l1-1.5c0.2-0.3,0.1-0.7-0.1-0.9l-2-2c-0.2-0.2-0.6-0.3-0.9-0.1
		l-1.5,1c-0.2-0.1-0.4-0.2-0.7-0.3l-0.3-1.7c-0.1-0.3-0.4-0.6-0.7-0.6h-2.8c-0.3,0-0.6,0.2-0.7,0.6l-0.3,1.7
		c-0.2,0.1-0.5,0.2-0.7,0.3l-1.5-1c-0.3-0.2-0.7-0.1-0.9,0.1l-2,2c-0.2,0.2-0.3,0.6-0.1,0.9l1,1.5c-0.1,0.2-0.2,0.4-0.3,0.7
		l-1.7,0.3c-0.3,0.1-0.6,0.4-0.6,0.7v2.8c0,0.3,0.2,0.6,0.6,0.7l1.7,0.3c0.1,0.2,0.2,0.5,0.3,0.7l-1,1.5c-0.2,0.3-0.1,0.7,0.1,0.9
		l2,2c0.2,0.2,0.6,0.3,0.9,0.1l1.5-1c0.2,0.1,0.4,0.2,0.7,0.3l0.3,1.7c0.1,0.3,0.4,0.6,0.7,0.6h2.8c0.3,0,0.6-0.2,0.7-0.6l0.3-1.7
		c0.2-0.1,0.5-0.2,0.7-0.3l1.5,1c0.3,0.2,0.7,0.1,0.9-0.1l2-2c0.2-0.2,0.3-0.6,0.1-0.9l-1-1.5c0.1-0.2,0.2-0.4,0.3-0.7l1.7-0.3
		c0.3-0.1,0.6-0.4,0.6-0.7v-2.8C5.4,255.8,5.2,255.5,4.8,255.4L4.8,255.4z M4,258.4l-1.6,0.3c-0.3,0.1-0.5,0.2-0.5,0.5
		c-0.1,0.4-0.3,0.8-0.5,1.2c-0.1,0.2-0.1,0.5,0,0.7l0.9,1.3l-1.2,1.2l-1.3-0.9c-0.2-0.1-0.5-0.2-0.7,0c-0.4,0.2-0.8,0.4-1.2,0.5
		c-0.3,0.1-0.4,0.3-0.5,0.5l-0.3,1.6h-1.7l-0.3-1.6c-0.1-0.3-0.2-0.5-0.5-0.5c-0.4-0.1-0.8-0.3-1.2-0.5c-0.2-0.1-0.5-0.1-0.7,0
		l-1.3,0.9l-1.2-1.2l0.9-1.3c0.1-0.2,0.2-0.5,0-0.7c-0.2-0.4-0.4-0.8-0.5-1.2c-0.1-0.3-0.3-0.4-0.5-0.5l-1.6-0.3v-1.7l1.6-0.3
		c0.3-0.1,0.5-0.2,0.5-0.5c0.1-0.4,0.3-0.8,0.5-1.2c0.1-0.2,0.1-0.5,0-0.7l-0.9-1.3l1.2-1.2l1.3,0.9c0.2,0.1,0.5,0.2,0.7,0
		c0.4-0.2,0.8-0.4,1.2-0.5c0.3-0.1,0.4-0.3,0.5-0.5l0.3-1.6h1.7l0.3,1.6c0.1,0.3,0.2,0.5,0.5,0.5c0.4,0.1,0.8,0.3,1.2,0.5
		c0.2,0.1,0.5,0.1,0.7,0l1.3-0.9l1.2,1.2L1.4,254c-0.1,0.2-0.2,0.5,0,0.7c0.2,0.4,0.4,0.8,0.5,1.2c0.1,0.3,0.3,0.4,0.5,0.5l1.6,0.3
		V258.4z"/>
</g>
<g>
	<g>
		<g>
			<g>
				<g>
					<path class="st2" d="M29.3,92h-9.4c-2.5,0-4.6,2.1-4.6,4.6v9.4c0,2.5,2.1,4.6,4.6,4.6h9.4c2.5,0,4.6-2.1,4.6-4.6v-9.4
						C33.9,94.1,31.9,92,29.3,92z M31,106c0,0.9-0.8,1.7-1.7,1.7h-9.4c-0.9,0-1.7-0.8-1.7-1.7v-9.4c0-0.9,0.8-1.7,1.7-1.7h9.4
						c0.9,0,1.7,0.8,1.7,1.7V106z"/>
				</g>
			</g>
			<g>
				<g>
					<path class="st2" d="M29.3,92h-9.4c-2.5,0-4.6,2.1-4.6,4.6v9.4c0,2.5,2.1,4.6,4.6,4.6h9.4c2.5,0,4.6-2.1,4.6-4.6v-9.4
						C33.9,94.1,31.9,92,29.3,92z M31,106c0,0.9-0.8,1.7-1.7,1.7h-9.4c-0.9,0-1.7-0.8-1.7-1.7v-9.4c0-0.9,0.8-1.7,1.7-1.7h9.4
						c0.9,0,1.7,0.8,1.7,1.7V106z"/>
				</g>
			</g>
			<path class="st2" d="M56.9,93.5c0-1-0.8-1.7-1.7-1.7c-1,0-1.7,0.8-1.7,1.7c0,3.4-2.7,6.1-6.1,6.1c-3.4,0-6.1-2.7-6.1-6.1
				c0-1-0.8-1.7-1.7-1.7c-1,0-1.7,0.8-1.7,1.7c0,3.3,1.6,6.2,4.3,8c-2.7,1.8-4.3,4.6-4.3,7.7c0,1,0.8,1.7,1.7,1.7
				c1,0,1.7-0.8,1.7-1.7c0-3.3,2.7-5.8,6.1-5.8c3.4,0,6.1,2.6,6.1,5.8c0,1,0.8,1.7,1.7,1.7c1,0,1.7-0.8,1.7-1.7
				c0-3.2-1.6-5.9-4.3-7.7C55.3,99.7,56.9,96.7,56.9,93.5z"/>
			<path class="st2" d="M62.2,91.5c-1,0-1.7,0.8-1.7,1.7V109c0,1,0.8,1.7,1.7,1.7c1,0,1.7-0.8,1.7-1.7V93.2
				C63.9,92.3,63.2,91.5,62.2,91.5z"/>
			<path class="st2" d="M81,91.5H69.2c-1,0-1.7,0.8-1.7,1.7V109c0,1,0.8,1.7,1.7,1.7c1,0,1.7-0.8,1.7-1.7v-6.1H81
				c3.1,0,5.7-2.5,5.7-5.7C86.7,94,84.1,91.5,81,91.5z M83.2,97.2c0,1.2-1,2.2-2.2,2.2H70.9V95H81C82.2,95,83.2,96,83.2,97.2z"/>
			<path class="st2" d="M107.7,91.7c-1,0-1.7,0.8-1.7,1.7v7.9c0,3.4-2.7,6.1-6.1,6.1c-3.4,0-6.1-2.7-6.1-6.1v-7.9
				c0-1-0.8-1.7-1.7-1.7c-1,0-1.7,0.8-1.7,1.7v7.9c0,5.3,4.3,9.6,9.6,9.6c5.3,0,9.6-4.3,9.6-9.6v-7.9
				C109.4,92.5,108.6,91.7,107.7,91.7z"/>
			<path class="st2" d="M126.4,107h-10.1V93.5c0-1-0.8-1.7-1.7-1.7c-1,0-1.7,0.8-1.7,1.7v15.3c0,1,0.8,1.7,1.7,1.7h11.8
				c1,0,1.7-0.8,1.7-1.7C128.2,107.8,127.4,107,126.4,107z"/>
		</g>
	</g>
	<g>
		<path class="st2" d="M-14.1,106.7c-0.6,0-1.2-0.3-1.5-0.9l-4.3-7.7h-2.4c-1,0-1.7-0.8-1.7-1.7c0-1,0.8-1.7,1.7-1.7h3.4
			c0.6,0,1.2,0.3,1.5,0.9l3.3,5.9l12.5-22.4c0.3-0.5,0.9-0.9,1.5-0.9h4.6c1,0,1.7,0.8,1.7,1.7c0,1-0.8,1.7-1.7,1.7H0.9l-13.5,24.2
			C-12.9,106.4-13.5,106.7-14.1,106.7C-14.1,106.7-14.1,106.7-14.1,106.7z"/>
		<g>
			<path class="st3" d="M-22.9,115.7c-4.1,0-7.4-3.3-7.4-7.4V90.1c0-4.1,3.3-7.4,7.4-7.4h16.5l-1.4,2.5h-15.1
				c-2.7,0-4.8,2.2-4.8,4.8v18.3c0,2.7,2.2,4.8,4.8,4.8h18.3c2.7,0,4.8-2.2,4.8-4.8V90.1c0-0.6-0.1-1.2-0.3-1.8l1.4-2.6
				c1,1.3,1.5,2.8,1.5,4.4v18.3c0,4.1-3.3,7.4-7.4,7.4H-22.9z"/>
		</g>
	</g>
</g>
</svg>
