<?xml version="1.0" encoding="utf-8"?>
<!-- Generator: Adobe Illustrator 24.2.0, SVG Export Plug-In . SVG Version: 6.00 Build 0)  -->
<svg version="1.1" id="Capa_1" xmlns="http://www.w3.org/2000/svg" xmlns:xlink="http://www.w3.org/1999/xlink" x="0px" y="0px"
	 viewBox="0 0 39.2 37.5" style="enable-background:new 0 0 39.2 37.5;" xml:space="preserve">
<style type="text/css">
	.st0{fill:#1E183A;}
	.st1{fill:#FFFDFF;}
	.st2{fill:#08B6D2;}
	.st3{fill:#A6C72E;}
	.st4{fill:none;stroke:#FFFFFF;stroke-width:1.0309;stroke-miterlimit:10;}
	.st5{fill:#FFFFFF;}
	.st6{fill:#66C5E0;}
</style>
<rect x="-762" y="45.5" class="st0" width="291" height="923.8"/>
<polygon class="st1" points="-507,165.5 -511,165.5 -509,162.1 -507,158.8 -505,162.1 -503,165.5 "/>
<g>
	<text transform="matrix(1 0 0 1 -679.8051 166.9847)" class="st5" style="font-family:'DINPro-Medium'; font-size:15px;">Daniel Pardo</text>
</g>
<g>
	<text transform="matrix(1 0 0 1 -679.4301 217.9847)" class="st5" style="font-family:'DINPro-Medium'; font-size:15px;">Configuraciones</text>
</g>
<g>
	<text transform="matrix(1 0 0 1 -677.3154 271.9847)" class="st5" style="font-family:'DINPro-Medium'; font-size:15px;">Cerrar Sesión</text>
</g>
<g>
	<text transform="matrix(1 0 0 1 -679.7753 391.3182)" class="st5" style="font-family:'DINPro-Medium'; font-size:15px;">Usuarios</text>
</g>
<g>
	<g>
		<path class="st1" d="M-707.6,383.8c2.9-2.6,3.1-7,0.5-9.9c-2.4-2.6-6.4-3.1-9.3-1c-3.2-2.2-7.6-1.5-9.8,1.7
			c-2.1,2.9-1.6,6.9,1,9.3c-3.3,1.7-5.3,5.1-5.3,8.9v3c0,0.6,0.4,1,1,1h26.1c0.6,0,1-0.4,1-1v-3
			C-702.3,388.9-704.3,385.5-707.6,383.8z M-712.4,373.6c2.8,0,5,2.2,5,5c0,2-1.2,3.8-3,4.6c-0.1,0-0.2,0.1-0.2,0.1
			c-0.2,0.1-0.5,0.2-0.8,0.2c-0.1,0-0.1,0-0.2,0c-0.3,0.1-0.6,0.1-0.9,0.1c-0.1,0-0.3,0-0.4,0c-0.1,0-0.1,0-0.2,0
			c-0.6-0.1-1.1-0.2-1.6-0.5c0,0,0,0-0.1,0c-0.1,0-0.2-0.1-0.3-0.1c0,0,0,0,0,0c0.5-0.6,0.8-1.3,1.1-2l0-0.1c0.1-0.3,0.2-0.7,0.3-1
			c0-0.1,0-0.1,0-0.2c0.1-0.4,0.1-0.7,0.1-1.1c0-0.4,0-0.7-0.1-1.1c0-0.1,0-0.1,0-0.2c-0.1-0.4-0.2-0.7-0.3-1l0-0.1
			c-0.3-0.7-0.6-1.4-1.1-2c0,0,0,0,0,0C-714.1,373.8-713.2,373.6-712.4,373.6z M-725.4,378.6c0-2.8,2.2-5,5-5c1.3,0,2.5,0.5,3.5,1.4
			c0.1,0.1,0.1,0.1,0.2,0.2c0.2,0.2,0.3,0.4,0.5,0.6c0,0.1,0.1,0.1,0.1,0.2c0.1,0.2,0.3,0.4,0.4,0.7c0,0.1,0,0.1,0.1,0.2
			c0.1,0.3,0.2,0.5,0.2,0.8c0,0,0,0.1,0,0.1c0.1,0.6,0.1,1.3,0,1.9c0,0,0,0.1,0,0.1c-0.1,0.3-0.1,0.5-0.2,0.8c0,0.1,0,0.1-0.1,0.2
			c-0.1,0.2-0.2,0.5-0.4,0.7c0,0.1-0.1,0.1-0.1,0.2c-0.1,0.2-0.3,0.4-0.5,0.6c-0.1,0.1-0.1,0.1-0.2,0.2c-0.4,0.4-0.9,0.7-1.4,0.9
			c-0.1,0-0.2,0.1-0.2,0.1c-0.2,0.1-0.5,0.2-0.7,0.2c-0.1,0-0.1,0-0.2,0c-0.3,0.1-0.5,0.1-0.8,0.1h-0.1c-0.3,0-0.6,0-0.8-0.1
			c-0.1,0-0.1,0-0.2,0c-0.3-0.1-0.5-0.1-0.7-0.2c-0.1,0-0.2-0.1-0.2-0.1C-724.3,382.4-725.4,380.6-725.4,378.6z M-712.4,394.7h-16.1
			v-2c0-3.4,2.1-6.4,5.3-7.6c1.7,0.7,3.7,0.7,5.4,0c0.3,0.1,0.7,0.3,1,0.4c0.2,0.1,0.4,0.2,0.6,0.4c0.1,0.1,0.3,0.2,0.4,0.3
			c0.2,0.1,0.4,0.3,0.6,0.4c0.1,0.1,0.2,0.2,0.3,0.3c0.2,0.2,0.3,0.3,0.5,0.5c0.1,0.1,0.2,0.2,0.3,0.4c0.1,0.2,0.3,0.3,0.4,0.5
			c0.1,0.2,0.2,0.3,0.3,0.5c0.1,0.2,0.2,0.3,0.3,0.5c0.1,0.2,0.2,0.4,0.2,0.6c0.1,0.2,0.1,0.3,0.2,0.5c0.1,0.2,0.1,0.5,0.2,0.7
			c0,0.1,0.1,0.3,0.1,0.4c0.1,0.4,0.1,0.8,0.1,1.2L-712.4,394.7L-712.4,394.7z M-704.3,394.7h-6v-2c0-0.3,0-0.6,0-0.9
			c0-0.1,0-0.2,0-0.3c0-0.2-0.1-0.4-0.1-0.7c0-0.1,0-0.2-0.1-0.3c0-0.2-0.1-0.4-0.2-0.7c0-0.1,0-0.1-0.1-0.2
			c-0.3-0.9-0.7-1.8-1.2-2.5l0-0.1c-0.2-0.3-0.4-0.5-0.6-0.7l0,0c-0.2-0.2-0.4-0.5-0.6-0.7c0,0,0,0,0,0c0.3,0,0.6,0.1,0.9,0.1h0.1
			c0.3,0,0.5,0,0.8-0.1c0.1,0,0.2,0,0.2,0c0.2,0,0.4-0.1,0.6-0.1c0.1,0,0.1,0,0.2,0c0.3-0.1,0.5-0.2,0.8-0.3
			c3.2,1.1,5.4,4.2,5.3,7.6L-704.3,394.7L-704.3,394.7z"/>
	</g>
</g>
<g>
	<g>
		<g>
			<g>
				<g>
					<path class="st2" d="M-676.9,76.5h-9.4c-2.5,0-4.6,2.1-4.6,4.6v9.4c0,2.5,2.1,4.6,4.6,4.6h9.4c2.5,0,4.6-2.1,4.6-4.6v-9.4
						C-672.3,78.6-674.3,76.5-676.9,76.5z M-675.2,90.5c0,0.9-0.8,1.7-1.7,1.7h-9.4c-0.9,0-1.7-0.8-1.7-1.7v-9.4
						c0-0.9,0.8-1.7,1.7-1.7h9.4c0.9,0,1.7,0.8,1.7,1.7V90.5z"/>
				</g>
			</g>
			<g>
				<g>
					<path class="st2" d="M-676.9,76.5h-9.4c-2.5,0-4.6,2.1-4.6,4.6v9.4c0,2.5,2.1,4.6,4.6,4.6h9.4c2.5,0,4.6-2.1,4.6-4.6v-9.4
						C-672.3,78.6-674.3,76.5-676.9,76.5z M-675.2,90.5c0,0.9-0.8,1.7-1.7,1.7h-9.4c-0.9,0-1.7-0.8-1.7-1.7v-9.4
						c0-0.9,0.8-1.7,1.7-1.7h9.4c0.9,0,1.7,0.8,1.7,1.7V90.5z"/>
				</g>
			</g>
			<path class="st2" d="M-649.2,78c0-1-0.8-1.7-1.7-1.7c-1,0-1.7,0.8-1.7,1.7c0,3.4-2.7,6.1-6.1,6.1c-3.4,0-6.1-2.7-6.1-6.1
				c0-1-0.8-1.7-1.7-1.7c-1,0-1.7,0.8-1.7,1.7c0,3.3,1.6,6.2,4.3,8c-2.7,1.8-4.3,4.6-4.3,7.7c0,1,0.8,1.7,1.7,1.7
				c1,0,1.7-0.8,1.7-1.7c0-3.3,2.7-5.8,6.1-5.8c3.4,0,6.1,2.6,6.1,5.8c0,1,0.8,1.7,1.7,1.7c1,0,1.7-0.8,1.7-1.7
				c0-3.2-1.6-5.9-4.3-7.7C-650.8,84.2-649.2,81.2-649.2,78z"/>
			<path class="st2" d="M-644,76c-1,0-1.7,0.8-1.7,1.7v15.7c0,1,0.8,1.7,1.7,1.7c1,0,1.7-0.8,1.7-1.7V77.7
				C-642.2,76.8-643,76-644,76z"/>
			<path class="st2" d="M-625.2,76H-637c-1,0-1.7,0.8-1.7,1.7v15.7c0,1,0.8,1.7,1.7,1.7c1,0,1.7-0.8,1.7-1.7v-6.1h10.1
				c3.1,0,5.7-2.5,5.7-5.7C-619.5,78.5-622.1,76-625.2,76z M-623,81.7c0,1.2-1,2.2-2.2,2.2h-10.1v-4.4h10.1
				C-624,79.5-623,80.5-623,81.7z"/>
			<path class="st2" d="M-598.5,76.2c-1,0-1.7,0.8-1.7,1.7v7.9c0,3.4-2.7,6.1-6.1,6.1c-3.4,0-6.1-2.7-6.1-6.1V78
				c0-1-0.8-1.7-1.7-1.7c-1,0-1.7,0.8-1.7,1.7v7.9c0,5.3,4.3,9.6,9.6,9.6c5.3,0,9.6-4.3,9.6-9.6V78C-596.8,77-597.6,76.2-598.5,76.2
				z"/>
			<path class="st2" d="M-579.7,91.5h-10.1V78c0-1-0.8-1.7-1.7-1.7c-1,0-1.7,0.8-1.7,1.7v15.3c0,1,0.8,1.7,1.7,1.7h11.8
				c1,0,1.7-0.8,1.7-1.7C-578,92.3-578.8,91.5-579.7,91.5z"/>
		</g>
	</g>
	<g>
		<path class="st2" d="M-720.3,91.2c-0.6,0-1.2-0.3-1.5-0.9l-4.3-7.7h-2.4c-1,0-1.7-0.8-1.7-1.7c0-1,0.8-1.7,1.7-1.7h3.4
			c0.6,0,1.2,0.3,1.5,0.9l3.3,5.9l12.5-22.4c0.3-0.5,0.9-0.9,1.5-0.9h4.6c1,0,1.7,0.8,1.7,1.7c0,1-0.8,1.7-1.7,1.7h-3.6l-13.5,24.2
			C-719.1,90.9-719.7,91.2-720.3,91.2C-720.3,91.2-720.3,91.2-720.3,91.2z"/>
		<g>
			<path class="st3" d="M-729.1,100.2c-4.1,0-7.4-3.3-7.4-7.4V74.6c0-4.1,3.3-7.4,7.4-7.4h16.5l-1.4,2.5h-15.1
				c-2.7,0-4.8,2.2-4.8,4.8v18.3c0,2.7,2.2,4.8,4.8,4.8h18.3c2.7,0,4.8-2.2,4.8-4.8V74.6c0-0.6-0.1-1.2-0.3-1.8l1.4-2.6
				c1,1.3,1.5,2.8,1.5,4.4v18.3c0,4.1-3.3,7.4-7.4,7.4H-729.1z"/>
		</g>
	</g>
</g>
<g>
	<text transform="matrix(1 0 0 1 -680.5703 335.9847)" class="st5" style="font-family:'DINPro-Medium'; font-size:15px;">Gráficos</text>
</g>
<g>
	<text transform="matrix(1 0 0 1 -679.9775 448.6517)" class="st5" style="font-family:'DINPro-Medium'; font-size:15px;">Pacientes</text>
</g>
<line class="st4" x1="-752" y1="116.5" x2="-481" y2="116.5"/>
<line class="st4" x1="-752" y1="297" x2="-481" y2="297"/>
<g>
	<g>
		<g>
			<path class="st1" d="M-716.4,147.5c-3.6,0-6.6,3-6.6,6.6c0,3.6,3,6.6,6.6,6.6c3.6,0,6.6-3,6.6-6.6
				C-709.8,150.5-712.7,147.5-716.4,147.5z M-716.4,159.3c-2.8,0-5.1-2.3-5.1-5.1c0-2.8,2.3-5.1,5.1-5.1c2.8,0,5.1,2.3,5.1,5.1
				C-711.2,157-713.5,159.3-716.4,159.3z"/>
		</g>
	</g>
	<g>
		<g>
			<path class="st1" d="M-714.3,162.2h-4.1c-3.4,0-6.7,1.6-9,4.9v5.4h22v-5.4C-707.6,163.8-710.9,162.2-714.3,162.2z M-706.8,171.1
				L-706.8,171.1h-19.1v-3.5c1.7-2.4,4.5-3.9,7.5-3.9h4.1c3,0,5.8,1.5,7.5,3.9V171.1L-706.8,171.1z"/>
		</g>
	</g>
</g>
<g>
	<path class="st1" d="M-707.9,204.2c-2.3-2.3-5.3-3.5-8.5-3.5c-3.2,0-6.2,1.2-8.5,3.5c-2.3,2.3-3.5,5.3-3.5,8.5
		c0,3.2,1.2,6.2,3.5,8.5c2.3,2.3,5.3,3.5,8.5,3.5c3.2,0,6.2-1.2,8.5-3.5c2.3-2.3,3.5-5.3,3.5-8.5
		C-704.4,209.5-705.6,206.5-707.9,204.2L-707.9,204.2z M-716.4,223.3c-5.8,0-10.6-4.8-10.6-10.6s4.8-10.6,10.6-10.6
		c5.8,0,10.6,4.8,10.6,10.6S-710.5,223.3-716.4,223.3L-716.4,223.3z"/>
	<path class="st1" d="M-716.4,208.7c-2.2,0-4,1.8-4,4c0,2.2,1.8,4,4,4c2.2,0,4-1.8,4-4C-712.4,210.5-714.2,208.7-716.4,208.7z
		 M-716.4,215.3c-1.4,0-2.6-1.2-2.6-2.6s1.2-2.6,2.6-2.6c1.4,0,2.6,1.2,2.6,2.6S-715,215.3-716.4,215.3z"/>
	<path class="st1" d="M-707.8,210.6l-1.7-0.3c-0.1-0.2-0.2-0.5-0.3-0.7l1-1.5c0.2-0.3,0.1-0.7-0.1-0.9l-2-2
		c-0.2-0.2-0.6-0.3-0.9-0.1l-1.5,1c-0.2-0.1-0.4-0.2-0.7-0.3l-0.3-1.7c-0.1-0.3-0.4-0.6-0.7-0.6h-2.8c-0.3,0-0.6,0.2-0.7,0.6
		l-0.3,1.7c-0.2,0.1-0.5,0.2-0.7,0.3l-1.5-1c-0.3-0.2-0.7-0.1-0.9,0.1l-2,2c-0.2,0.2-0.3,0.6-0.1,0.9l1,1.5
		c-0.1,0.2-0.2,0.4-0.3,0.7l-1.7,0.3c-0.3,0.1-0.6,0.4-0.6,0.7v2.8c0,0.3,0.2,0.6,0.6,0.7l1.7,0.3c0.1,0.2,0.2,0.5,0.3,0.7l-1,1.5
		c-0.2,0.3-0.1,0.7,0.1,0.9l2,2c0.2,0.2,0.6,0.3,0.9,0.1l1.5-1c0.2,0.1,0.4,0.2,0.7,0.3l0.3,1.7c0.1,0.3,0.4,0.6,0.7,0.6h2.8
		c0.3,0,0.6-0.2,0.7-0.6l0.3-1.7c0.2-0.1,0.5-0.2,0.7-0.3l1.5,1c0.3,0.2,0.7,0.1,0.9-0.1l2-2c0.2-0.2,0.3-0.6,0.1-0.9l-1-1.5
		c0.1-0.2,0.2-0.4,0.3-0.7l1.7-0.3c0.3-0.1,0.6-0.4,0.6-0.7v-2.8C-707.2,211-707.5,210.7-707.8,210.6L-707.8,210.6z M-708.6,213.6
		l-1.6,0.3c-0.3,0.1-0.5,0.2-0.5,0.5c-0.1,0.4-0.3,0.8-0.5,1.2c-0.1,0.2-0.1,0.5,0,0.7l0.9,1.3l-1.2,1.2l-1.3-0.9
		c-0.2-0.1-0.5-0.2-0.7,0c-0.4,0.2-0.8,0.4-1.2,0.5c-0.3,0.1-0.4,0.3-0.5,0.5l-0.3,1.6h-1.7l-0.3-1.6c-0.1-0.3-0.2-0.5-0.5-0.5
		c-0.4-0.1-0.8-0.3-1.2-0.5c-0.2-0.1-0.5-0.1-0.7,0l-1.3,0.9l-1.2-1.2l0.9-1.3c0.1-0.2,0.2-0.5,0-0.7c-0.2-0.4-0.4-0.8-0.5-1.2
		c-0.1-0.3-0.3-0.4-0.5-0.5l-1.6-0.3v-1.7l1.6-0.3c0.3-0.1,0.5-0.2,0.5-0.5c0.1-0.4,0.3-0.8,0.5-1.2c0.1-0.2,0.1-0.5,0-0.7l-0.9-1.3
		l1.2-1.2l1.3,0.9c0.2,0.1,0.5,0.2,0.7,0c0.4-0.2,0.8-0.4,1.2-0.5c0.3-0.1,0.4-0.3,0.5-0.5l0.3-1.6h1.7l0.3,1.6
		c0.1,0.3,0.2,0.5,0.5,0.5c0.4,0.1,0.8,0.3,1.2,0.5c0.2,0.1,0.5,0.1,0.7,0l1.3-0.9l1.2,1.2l-0.9,1.3c-0.1,0.2-0.2,0.5,0,0.7
		c0.2,0.4,0.4,0.8,0.5,1.2c0.1,0.3,0.3,0.4,0.5,0.5l1.6,0.3V213.6z"/>
</g>
<g>
	<path class="st1" d="M-715.4,276l8.2-8.2l1.1,1.1l-8.2,8.2L-715.4,276z"/>
	<path class="st1" d="M-710.7,279.1c-3.7,0-6.7-3-6.7-6.7c0-3.7,3-6.7,6.7-6.7c3.7,0,6.7,3,6.7,6.7
		C-704.1,276.1-707.1,279.1-710.7,279.1z M-710.7,267.3c-2.8,0-5.1,2.3-5.1,5.1s2.3,5.1,5.1,5.1c2.8,0,5.1-2.3,5.1-5.1
		S-707.9,267.3-710.7,267.3z"/>
	<path class="st1" d="M-720.2,275h-6.1c-1.3,0-2.3-1-2.3-2.3V264c0-1.3,1-2.3,2.3-2.3h11.8c0.7,0,1.3,0.3,1.7,0.8
		c0.3,0.3,0.2,0.8-0.1,1.1c-0.3,0.3-0.8,0.2-1.1-0.1c-0.1-0.2-0.3-0.3-0.6-0.3h-11.8c-0.4,0-0.8,0.3-0.8,0.8v8.7
		c0,0.4,0.3,0.8,0.8,0.8h6.1c0.4,0,0.8,0.3,0.8,0.8C-719.4,274.7-719.8,275-720.2,275z"/>
	<path class="st1" d="M-716.1,263.2c-0.4,0-0.8-0.3-0.8-0.8v-2.8c0-2-1.6-3.6-3.6-3.6c-2,0-3.6,1.6-3.6,3.6v2.8
		c0,0.4-0.3,0.8-0.8,0.8c-0.4,0-0.8-0.3-0.8-0.8v-2.8c0-2.8,2.3-5.1,5.1-5.1c2.8,0,5.1,2.3,5.1,5.1v2.8
		C-715.3,262.9-715.7,263.2-716.1,263.2z"/>
</g>
<path class="st5" d="M-716.4,454.9c-0.4,0-0.8-0.1-1.1-0.4c-1.1-1-2.2-1.9-3.1-2.7l0,0c-2.8-2.4-5.2-4.4-6.8-6.4
	c-1.9-2.2-2.7-4.4-2.7-6.7c0-2.3,0.8-4.3,2.2-5.9c1.4-1.5,3.4-2.4,5.5-2.4c1.6,0,3,0.5,4.3,1.5c0.6,0.5,1.2,1.1,1.7,1.8
	c0.5-0.7,1.1-1.3,1.7-1.8c1.3-1,2.7-1.5,4.3-1.5c2.1,0,4.1,0.8,5.5,2.4c1.4,1.5,2.2,3.6,2.2,5.9c0,2.3-0.9,4.4-2.7,6.7
	c-1.7,2-4.1,4-6.8,6.4c-0.9,0.8-2,1.7-3.1,2.7C-715.6,454.8-716,454.9-716.4,454.9z M-722.4,432.1c-1.7,0-3.2,0.7-4.3,1.9
	c-1.1,1.2-1.8,2.9-1.8,4.8c0,2,0.7,3.7,2.4,5.7c1.6,1.9,3.9,3.9,6.6,6.2l0,0c0.9,0.8,2,1.7,3.1,2.7c1.1-1,2.2-1.9,3.1-2.7
	c2.7-2.3,5-4.3,6.6-6.2c1.6-2,2.4-3.7,2.4-5.7c0-1.9-0.6-3.5-1.8-4.8c-1.1-1.2-2.6-1.9-4.3-1.9c-1.2,0-2.3,0.4-3.3,1.2
	c-0.9,0.7-1.5,1.5-1.9,2.1c-0.2,0.3-0.5,0.5-0.9,0.5c-0.4,0-0.7-0.2-0.9-0.5c-0.4-0.6-1-1.5-1.9-2.1
	C-720.1,432.5-721.2,432.1-722.4,432.1z"/>
<g>
	<g>
		<text transform="matrix(1 0 0 1 -680.2026 510.9847)" class="st5" style="font-family:'DINPro-Medium'; font-size:15px;">Alertas</text>
	</g>
	<g>
		<g>
			<g>
				<path class="st1" d="M-700.9,510.8l-12.2-21.2c-0.7-1.2-1.9-1.9-3.3-1.9c-1.4,0-2.6,0.7-3.3,1.9l-12.2,21.2
					c-0.7,1.2-0.7,2.6,0,3.8c0.7,1.2,1.9,1.9,3.3,1.9h24.5c1.4,0,2.6-0.7,3.3-1.9C-700.2,513.4-700.2,512-700.9,510.8z
					 M-702.5,513.6c-0.3,0.6-1,0.9-1.6,0.9h-24.5c-0.7,0-1.3-0.4-1.6-0.9c-0.3-0.6-0.3-1.3,0-1.9l12.2-21.2c0.3-0.6,1-0.9,1.6-0.9
					c0.7,0,1.3,0.4,1.6,0.9l12.2,21.2C-702.2,512.3-702.2,513-702.5,513.6z"/>
			</g>
		</g>
		<g>
			<g>
				<rect x="-717.3" y="497.1" class="st1" width="1.9" height="9.4"/>
			</g>
		</g>
	</g>
	<g>
		<g>
			<path class="st1" d="M-716,508.3c-0.7,0-1.2,0.6-1.2,1.2c0,0.7,0.6,1.2,1.2,1.2c0.7,0,1.2-0.6,1.2-1.2
				C-714.7,508.9-715.3,508.3-716,508.3z"/>
		</g>
	</g>
</g>
<g>
	<g>
		<path class="st5" d="M-699.6,338.4l-1.9-1.9c-0.3-0.3-0.7-0.3-0.9,0c-0.3,0.3-0.3,0.7,0,0.9l0.8,0.8h-2.3v-5
			c0.6,0.2,1.3,0.3,2,0.3c0.4,0,0.7-0.3,0.7-0.7c0-0.4-0.3-0.7-0.7-0.7c-0.7,0-1.3-0.1-2-0.4v-4.9h2c0.4,0,0.7-0.3,0.7-0.7
			c0-0.4-0.3-0.7-0.7-0.7h-2v-6.8c0.9,0.6,1.5,1.1,1.6,1.1c0.1,0.1,0.3,0.2,0.4,0.2c0.2,0,0.4-0.1,0.5-0.2c0.2-0.3,0.2-0.7-0.1-0.9
			c0,0-1.2-1-2.8-1.8c0,0,0,0,0,0c-1.4-0.6-2.7-1-3.9-1h0c-0.7,0-1.4,0.1-2,0.3c-0.2,0.1-0.3,0.2-0.4,0.3c-0.1,0.2-0.1,0.3,0,0.5
			c0.1,0.3,0.3,0.5,0.6,0.5c0.1,0,0.1,0,0.2,0c0.5-0.2,1.1-0.3,1.6-0.3c0.8,0,2,0.3,3,0.7V331c-0.3-0.2-0.7-0.5-1-0.8
			c-1.3-1-2.7-2.1-4.7-2.1c-2.5,0-4.5,0.8-6.2,1.8l0,0c0.6-1,1-2,1.5-3.1h0.5c0.4,0,0.7-0.3,0.7-0.7c0-0.4-0.3-0.7-0.7-0.7
			c0.1-0.3,0.2-0.6,0.3-0.9c0.4-1.2,0.8-2.3,1.3-3.2c0.2-0.3,0-0.7-0.3-0.9c-0.1,0-0.2-0.1-0.3-0.1c-0.2,0-0.5,0.1-0.6,0.4
			c-0.5,1-1,2.2-1.4,3.5c-0.1,0.4-0.3,0.9-0.4,1.3h-1.3c-0.4,0-0.7,0.3-0.7,0.7c0,0.4,0.3,0.7,0.7,0.7h0.7c-1.2,2.9-2.9,5.2-4.9,7.1
			c0,0,0,0,0,0c-3.2,2.9-6.6,3.8-8,4.1v-11.2h1.6c0.4,0,0.7-0.3,0.7-0.7c0-0.4-0.3-0.7-0.7-0.7h-1.6v-12.1l0.8,0.8
			c0.1,0.1,0.3,0.2,0.5,0.2c0.2,0,0.3-0.1,0.5-0.2c0.3-0.3,0.3-0.7,0-0.9l-1.9-1.9c-0.3-0.3-0.7-0.3-0.9,0l-1.9,1.9
			c-0.3,0.3-0.3,0.7,0,0.9c0.3,0.3,0.7,0.3,0.9,0l0.8-0.8v24.7h-1.3c-0.4,0-0.7,0.3-0.7,0.7s0.3,0.7,0.7,0.7h1.3v1.3
			c0,0.4,0.3,0.7,0.7,0.7s0.7-0.3,0.7-0.7v-1.3h28.5l-0.8,0.8c-0.3,0.3-0.3,0.7,0,0.9c0.1,0.1,0.3,0.2,0.5,0.2
			c0.2,0,0.3-0.1,0.5-0.2l1.9-1.9C-699.3,339.1-699.3,338.6-699.6,338.4L-699.6,338.4z M-705.3,338.2h-20.8c1.5-0.7,3.2-1.7,4.9-3.2
			c0.5-0.4,0.9-0.8,1.4-1.2c2.2-2,4.6-4.2,8.8-4.2c1.6,0,2.7,0.8,3.9,1.8c0.6,0.4,1.2,0.9,1.8,1.3V338.2z"/>
		<path class="st5" d="M-724.5,326.9h2.7c0.4,0,0.7-0.3,0.7-0.7c0-0.4-0.3-0.7-0.7-0.7h-2.7c-0.4,0-0.7,0.3-0.7,0.7
			C-725.2,326.6-724.9,326.9-724.5,326.9z"/>
		<path class="st5" d="M-711.3,326.9h2.7c0.4,0,0.7-0.3,0.7-0.7c0-0.4-0.3-0.7-0.7-0.7h-2.7c-0.4,0-0.7,0.3-0.7,0.7
			C-711.9,326.6-711.6,326.9-711.3,326.9z"/>
		<circle class="st5" cx="-712.6" cy="318.7" r="0.7"/>
	</g>
</g>
<rect x="-418" y="45.5" class="st0" width="291" height="923.8"/>
<polygon class="st1" points="-163,165.5 -167,165.5 -165,162.1 -163,158.8 -161,162.1 -159,165.5 "/>
<polygon class="st0" points="247.2,193.7 243.2,193.7 245.2,190.3 247.2,186.9 249.2,190.3 251.2,193.7 "/>
<g>
	<text transform="matrix(1 0 0 1 -335.8052 166.9847)" class="st5" style="font-family:'DINPro-Medium'; font-size:15px;">Daniel Pardo</text>
</g>
<g>
	<text transform="matrix(1 0 0 1 -333.3154 271.9847)" class="st5" style="font-family:'DINPro-Medium'; font-size:15px;">Cerrar Sesión</text>
</g>
<g>
	<text transform="matrix(1 0 0 1 -335.7754 391.3182)" class="st5" style="font-family:'DINPro-Medium'; font-size:15px;">Usuarios</text>
</g>
<g>
	<g>
		<path class="st1" d="M-363.6,383.8c2.9-2.6,3.1-7,0.5-9.9c-2.4-2.6-6.4-3.1-9.3-1c-3.2-2.2-7.6-1.5-9.8,1.7
			c-2.1,2.9-1.6,6.9,1,9.3c-3.3,1.7-5.3,5.1-5.3,8.9v3c0,0.6,0.4,1,1,1h26.1c0.6,0,1-0.4,1-1v-3
			C-358.3,388.9-360.3,385.5-363.6,383.8z M-368.4,373.6c2.8,0,5,2.2,5,5c0,2-1.2,3.8-3,4.6c-0.1,0-0.2,0.1-0.2,0.1
			c-0.2,0.1-0.5,0.2-0.8,0.2c-0.1,0-0.1,0-0.2,0c-0.3,0.1-0.6,0.1-0.9,0.1c-0.1,0-0.3,0-0.4,0c-0.1,0-0.1,0-0.2,0
			c-0.6-0.1-1.1-0.2-1.6-0.5c0,0,0,0-0.1,0c-0.1,0-0.2-0.1-0.3-0.1c0,0,0,0,0,0c0.5-0.6,0.8-1.3,1.1-2l0-0.1c0.1-0.3,0.2-0.7,0.3-1
			c0-0.1,0-0.1,0-0.2c0.1-0.4,0.1-0.7,0.1-1.1c0-0.4,0-0.7-0.1-1.1c0-0.1,0-0.1,0-0.2c-0.1-0.4-0.2-0.7-0.3-1l0-0.1
			c-0.3-0.7-0.6-1.4-1.1-2c0,0,0,0,0,0C-370.1,373.8-369.2,373.6-368.4,373.6z M-381.4,378.6c0-2.8,2.2-5,5-5c1.3,0,2.5,0.5,3.5,1.4
			c0.1,0.1,0.1,0.1,0.2,0.2c0.2,0.2,0.3,0.4,0.5,0.6c0,0.1,0.1,0.1,0.1,0.2c0.1,0.2,0.3,0.4,0.4,0.7c0,0.1,0,0.1,0.1,0.2
			c0.1,0.3,0.2,0.5,0.2,0.8c0,0,0,0.1,0,0.1c0.1,0.6,0.1,1.3,0,1.9c0,0,0,0.1,0,0.1c-0.1,0.3-0.1,0.5-0.2,0.8c0,0.1,0,0.1-0.1,0.2
			c-0.1,0.2-0.2,0.5-0.4,0.7c0,0.1-0.1,0.1-0.1,0.2c-0.1,0.2-0.3,0.4-0.5,0.6c-0.1,0.1-0.1,0.1-0.2,0.2c-0.4,0.4-0.9,0.7-1.4,0.9
			c-0.1,0-0.2,0.1-0.2,0.1c-0.2,0.1-0.5,0.2-0.7,0.2c-0.1,0-0.1,0-0.2,0c-0.3,0.1-0.5,0.1-0.8,0.1h-0.1c-0.3,0-0.6,0-0.8-0.1
			c-0.1,0-0.1,0-0.2,0c-0.3-0.1-0.5-0.1-0.7-0.2c-0.1,0-0.2-0.1-0.2-0.1C-380.3,382.4-381.4,380.6-381.4,378.6z M-368.4,394.7h-16.1
			v-2c0-3.4,2.1-6.4,5.3-7.6c1.7,0.7,3.7,0.7,5.4,0c0.3,0.1,0.7,0.3,1,0.4c0.2,0.1,0.4,0.2,0.6,0.4c0.1,0.1,0.3,0.2,0.4,0.3
			c0.2,0.1,0.4,0.3,0.6,0.4c0.1,0.1,0.2,0.2,0.3,0.3c0.2,0.2,0.3,0.3,0.5,0.5c0.1,0.1,0.2,0.2,0.3,0.4c0.1,0.2,0.3,0.3,0.4,0.5
			c0.1,0.2,0.2,0.3,0.3,0.5c0.1,0.2,0.2,0.3,0.3,0.5c0.1,0.2,0.2,0.4,0.2,0.6c0.1,0.2,0.1,0.3,0.2,0.5c0.1,0.2,0.1,0.5,0.2,0.7
			c0,0.1,0.1,0.3,0.1,0.4c0.1,0.4,0.1,0.8,0.1,1.2L-368.4,394.7L-368.4,394.7z M-360.3,394.7h-6v-2c0-0.3,0-0.6,0-0.9
			c0-0.1,0-0.2,0-0.3c0-0.2-0.1-0.4-0.1-0.7c0-0.1,0-0.2-0.1-0.3c0-0.2-0.1-0.4-0.2-0.7c0-0.1,0-0.1-0.1-0.2
			c-0.3-0.9-0.7-1.8-1.2-2.5l0-0.1c-0.2-0.3-0.4-0.5-0.6-0.7l0,0c-0.2-0.2-0.4-0.5-0.6-0.7c0,0,0,0,0,0c0.3,0,0.6,0.1,0.9,0.1h0.1
			c0.3,0,0.5,0,0.8-0.1c0.1,0,0.2,0,0.2,0c0.2,0,0.4-0.1,0.6-0.1c0.1,0,0.1,0,0.2,0c0.3-0.1,0.5-0.2,0.8-0.3
			c3.2,1.1,5.4,4.2,5.3,7.6L-360.3,394.7L-360.3,394.7z"/>
	</g>
</g>
<g>
	<g>
		<g>
			<g>
				<g>
					<path class="st2" d="M-332.9,76.5h-9.4c-2.5,0-4.6,2.1-4.6,4.6v9.4c0,2.5,2.1,4.6,4.6,4.6h9.4c2.5,0,4.6-2.1,4.6-4.6v-9.4
						C-328.3,78.6-330.3,76.5-332.9,76.5z M-331.2,90.5c0,0.9-0.8,1.7-1.7,1.7h-9.4c-0.9,0-1.7-0.8-1.7-1.7v-9.4
						c0-0.9,0.8-1.7,1.7-1.7h9.4c0.9,0,1.7,0.8,1.7,1.7V90.5z"/>
				</g>
			</g>
			<g>
				<g>
					<path class="st2" d="M-332.9,76.5h-9.4c-2.5,0-4.6,2.1-4.6,4.6v9.4c0,2.5,2.1,4.6,4.6,4.6h9.4c2.5,0,4.6-2.1,4.6-4.6v-9.4
						C-328.3,78.6-330.3,76.5-332.9,76.5z M-331.2,90.5c0,0.9-0.8,1.7-1.7,1.7h-9.4c-0.9,0-1.7-0.8-1.7-1.7v-9.4
						c0-0.9,0.8-1.7,1.7-1.7h9.4c0.9,0,1.7,0.8,1.7,1.7V90.5z"/>
				</g>
			</g>
			<path class="st2" d="M-305.2,78c0-1-0.8-1.7-1.7-1.7c-1,0-1.7,0.8-1.7,1.7c0,3.4-2.7,6.1-6.1,6.1c-3.4,0-6.1-2.7-6.1-6.1
				c0-1-0.8-1.7-1.7-1.7c-1,0-1.7,0.8-1.7,1.7c0,3.3,1.6,6.2,4.3,8c-2.7,1.8-4.3,4.6-4.3,7.7c0,1,0.8,1.7,1.7,1.7
				c1,0,1.7-0.8,1.7-1.7c0-3.3,2.7-5.8,6.1-5.8c3.4,0,6.1,2.6,6.1,5.8c0,1,0.8,1.7,1.7,1.7c1,0,1.7-0.8,1.7-1.7
				c0-3.2-1.6-5.9-4.3-7.7C-306.8,84.2-305.2,81.2-305.2,78z"/>
			<path class="st2" d="M-300,76c-1,0-1.7,0.8-1.7,1.7v15.7c0,1,0.8,1.7,1.7,1.7c1,0,1.7-0.8,1.7-1.7V77.7
				C-298.2,76.8-299,76-300,76z"/>
			<path class="st2" d="M-281.2,76H-293c-1,0-1.7,0.8-1.7,1.7v15.7c0,1,0.8,1.7,1.7,1.7c1,0,1.7-0.8,1.7-1.7v-6.1h10.1
				c3.1,0,5.7-2.5,5.7-5.7C-275.5,78.5-278.1,76-281.2,76z M-279,81.7c0,1.2-1,2.2-2.2,2.2h-10.1v-4.4h10.1
				C-280,79.5-279,80.5-279,81.7z"/>
			<path class="st2" d="M-254.5,76.2c-1,0-1.7,0.8-1.7,1.7v7.9c0,3.4-2.7,6.1-6.1,6.1c-3.4,0-6.1-2.7-6.1-6.1V78
				c0-1-0.8-1.7-1.7-1.7c-1,0-1.7,0.8-1.7,1.7v7.9c0,5.3,4.3,9.6,9.6,9.6c5.3,0,9.6-4.3,9.6-9.6V78C-252.8,77-253.6,76.2-254.5,76.2
				z"/>
			<path class="st2" d="M-235.7,91.5h-10.1V78c0-1-0.8-1.7-1.7-1.7c-1,0-1.7,0.8-1.7,1.7v15.3c0,1,0.8,1.7,1.7,1.7h11.8
				c1,0,1.7-0.8,1.7-1.7C-234,92.3-234.8,91.5-235.7,91.5z"/>
		</g>
	</g>
	<g>
		<path class="st2" d="M-376.3,91.2c-0.6,0-1.2-0.3-1.5-0.9l-4.3-7.7h-2.4c-1,0-1.7-0.8-1.7-1.7c0-1,0.8-1.7,1.7-1.7h3.4
			c0.6,0,1.2,0.3,1.5,0.9l3.3,5.9l12.5-22.4c0.3-0.5,0.9-0.9,1.5-0.9h4.6c1,0,1.7,0.8,1.7,1.7c0,1-0.8,1.7-1.7,1.7h-3.6l-13.5,24.2
			C-375.1,90.9-375.7,91.2-376.3,91.2C-376.3,91.2-376.3,91.2-376.3,91.2z"/>
		<g>
			<path class="st3" d="M-385.1,100.2c-4.1,0-7.4-3.3-7.4-7.4V74.6c0-4.1,3.3-7.4,7.4-7.4h16.5l-1.4,2.5h-15.1
				c-2.7,0-4.8,2.2-4.8,4.8v18.3c0,2.7,2.2,4.8,4.8,4.8h18.3c2.7,0,4.8-2.2,4.8-4.8V74.6c0-0.6-0.1-1.2-0.3-1.8l1.4-2.6
				c1,1.3,1.5,2.8,1.5,4.4v18.3c0,4.1-3.3,7.4-7.4,7.4H-385.1z"/>
		</g>
	</g>
</g>
<g>
	<g>
		<g>
			<g>
				<g>
					<path class="st2" d="M61,13.8h-9.4c-2.5,0-4.6,2.1-4.6,4.6v9.4c0,2.5,2.1,4.6,4.6,4.6H61c2.5,0,4.6-2.1,4.6-4.6v-9.4
						C65.6,15.9,63.5,13.8,61,13.8z M62.7,27.8c0,0.9-0.8,1.7-1.7,1.7h-9.4c-0.9,0-1.7-0.8-1.7-1.7v-9.4c0-0.9,0.8-1.7,1.7-1.7H61
						c0.9,0,1.7,0.8,1.7,1.7V27.8z"/>
				</g>
			</g>
			<g>
				<g>
					<path class="st2" d="M61,13.8h-9.4c-2.5,0-4.6,2.1-4.6,4.6v9.4c0,2.5,2.1,4.6,4.6,4.6H61c2.5,0,4.6-2.1,4.6-4.6v-9.4
						C65.6,15.9,63.5,13.8,61,13.8z M62.7,27.8c0,0.9-0.8,1.7-1.7,1.7h-9.4c-0.9,0-1.7-0.8-1.7-1.7v-9.4c0-0.9,0.8-1.7,1.7-1.7H61
						c0.9,0,1.7,0.8,1.7,1.7V27.8z"/>
				</g>
			</g>
			<path class="st2" d="M88.6,15.3c0-1-0.8-1.7-1.7-1.7c-1,0-1.7,0.8-1.7,1.7c0,3.4-2.7,6.1-6.1,6.1c-3.4,0-6.1-2.7-6.1-6.1
				c0-1-0.8-1.7-1.7-1.7c-1,0-1.7,0.8-1.7,1.7c0,3.3,1.6,6.2,4.3,8C71,25,69.4,27.8,69.4,31c0,1,0.8,1.7,1.7,1.7
				c1,0,1.7-0.8,1.7-1.7c0-3.3,2.7-5.8,6.1-5.8c3.4,0,6.1,2.6,6.1,5.8c0,1,0.8,1.7,1.7,1.7c1,0,1.7-0.8,1.7-1.7
				c0-3.2-1.6-5.9-4.3-7.7C87,21.5,88.6,18.5,88.6,15.3z"/>
			<path class="st2" d="M93.9,13.3c-1,0-1.7,0.8-1.7,1.7v15.7c0,1,0.8,1.7,1.7,1.7c1,0,1.7-0.8,1.7-1.7V15
				C95.6,14.1,94.8,13.3,93.9,13.3z"/>
			<path class="st2" d="M112.7,13.3h-11.8c-1,0-1.7,0.8-1.7,1.7v15.7c0,1,0.8,1.7,1.7,1.7c1,0,1.7-0.8,1.7-1.7v-6.1h10.1
				c3.1,0,5.7-2.5,5.7-5.7C118.3,15.8,115.8,13.3,112.7,13.3z M114.9,19c0,1.2-1,2.2-2.2,2.2h-10.1v-4.4h10.1
				C113.9,16.8,114.9,17.8,114.9,19z"/>
			<path class="st2" d="M139.3,13.5c-1,0-1.7,0.8-1.7,1.7v7.9c0,3.4-2.7,6.1-6.1,6.1c-3.4,0-6.1-2.7-6.1-6.1v-7.9
				c0-1-0.8-1.7-1.7-1.7c-1,0-1.7,0.8-1.7,1.7v7.9c0,5.3,4.3,9.6,9.6,9.6c5.3,0,9.6-4.3,9.6-9.6v-7.9
				C141.1,14.3,140.3,13.5,139.3,13.5z"/>
			<path class="st2" d="M158.1,28.8h-10.1V15.2c0-1-0.8-1.7-1.7-1.7c-1,0-1.7,0.8-1.7,1.7v15.3c0,1,0.8,1.7,1.7,1.7h11.8
				c1,0,1.7-0.8,1.7-1.7C159.9,29.6,159.1,28.8,158.1,28.8z"/>
		</g>
	</g>
	<g>
		<path class="st2" d="M17.6,28.5c-0.6,0-1.2-0.3-1.5-0.9l-4.3-7.7H9.3c-1,0-1.7-0.8-1.7-1.7c0-1,0.8-1.7,1.7-1.7h3.4
			c0.6,0,1.2,0.3,1.5,0.9l3.3,5.9L30,0.9C30.4,0.3,30.9,0,31.6,0h4.6c1,0,1.7,0.8,1.7,1.7c0,1-0.8,1.7-1.7,1.7h-3.6L19.1,27.6
			C18.8,28.2,18.2,28.5,17.6,28.5C17.6,28.5,17.6,28.5,17.6,28.5z"/>
		<g>
			<path class="st3" d="M8.8,37.5c-4.1,0-7.4-3.3-7.4-7.4V11.9c0-4.1,3.3-7.4,7.4-7.4h16.5l-1.4,2.5H8.8c-2.7,0-4.8,2.2-4.8,4.8
				v18.3c0,2.7,2.2,4.8,4.8,4.8H27c2.7,0,4.8-2.2,4.8-4.8V11.9c0-0.6-0.1-1.2-0.3-1.8l1.4-2.6c1,1.3,1.5,2.8,1.5,4.4v18.3
				c0,4.1-3.3,7.4-7.4,7.4H8.8z"/>
		</g>
	</g>
</g>
<g>
	<text transform="matrix(1 0 0 1 -336.5703 335.9847)" class="st5" style="font-family:'DINPro-Medium'; font-size:15px;">Gráficos</text>
</g>
<g>
	<text transform="matrix(1 0 0 1 -335.9775 448.6517)" class="st5" style="font-family:'DINPro-Medium'; font-size:15px;">Pacientes</text>
</g>
<line class="st4" x1="-408" y1="116.5" x2="-137" y2="116.5"/>
<line class="st4" x1="-408" y1="297" x2="-137" y2="297"/>
<g>
	<g>
		<g>
			<path class="st1" d="M-372.4,147.5c-3.6,0-6.6,3-6.6,6.6c0,3.6,3,6.6,6.6,6.6c3.6,0,6.6-3,6.6-6.6
				C-365.8,150.5-368.7,147.5-372.4,147.5z M-372.4,159.3c-2.8,0-5.1-2.3-5.1-5.1c0-2.8,2.3-5.1,5.1-5.1s5.1,2.3,5.1,5.1
				C-367.2,157-369.5,159.3-372.4,159.3z"/>
		</g>
	</g>
	<g>
		<g>
			<path class="st1" d="M-370.3,162.2h-4.1c-3.4,0-6.7,1.6-9,4.9v5.4h22v-5.4C-363.6,163.8-366.9,162.2-370.3,162.2z M-362.8,171.1
				L-362.8,171.1h-19.1v-3.5c1.7-2.4,4.5-3.9,7.5-3.9h4.1c3,0,5.8,1.5,7.5,3.9V171.1L-362.8,171.1z"/>
		</g>
	</g>
</g>
<text transform="matrix(1 0 0 1 74.4032 195.1563)" class="st0" style="font-family:'DINPro-Medium'; font-size:15px;">Daniel Pardo</text>
<g>
	<g>
		<g>
			<path class="st0" d="M37.8,175.7c-3.6,0-6.6,3-6.6,6.6c0,3.6,3,6.6,6.6,6.6c3.6,0,6.6-3,6.6-6.6
				C44.4,178.7,41.5,175.7,37.8,175.7z M37.8,187.4c-2.8,0-5.1-2.3-5.1-5.1c0-2.8,2.3-5.1,5.1-5.1c2.8,0,5.1,2.3,5.1,5.1
				C43,185.1,40.7,187.4,37.8,187.4z"/>
		</g>
	</g>
	<g>
		<g>
			<path class="st0" d="M39.9,190.4h-4.1c-3.4,0-6.7,1.6-9,4.9v5.4h22v-5.4C46.6,192,43.3,190.4,39.9,190.4z M47.4,199.3L47.4,199.3
				H28.3v-3.5c1.7-2.4,4.5-3.9,7.5-3.9h4.1c3,0,5.8,1.5,7.5,3.9V199.3L47.4,199.3z"/>
		</g>
	</g>
</g>
<g>
	<path class="st1" d="M-371.4,276l8.2-8.2l1.1,1.1l-8.2,8.2L-371.4,276z"/>
	<path class="st1" d="M-366.7,279.1c-3.7,0-6.7-3-6.7-6.7c0-3.7,3-6.7,6.7-6.7s6.7,3,6.7,6.7C-360.1,276.1-363.1,279.1-366.7,279.1z
		 M-366.7,267.3c-2.8,0-5.1,2.3-5.1,5.1s2.3,5.1,5.1,5.1s5.1-2.3,5.1-5.1S-363.9,267.3-366.7,267.3z"/>
	<path class="st1" d="M-376.2,275h-6.2c-1.3,0-2.3-1-2.3-2.3V264c0-1.3,1-2.3,2.3-2.3h11.8c0.7,0,1.3,0.3,1.7,0.8
		c0.3,0.3,0.2,0.8-0.1,1.1c-0.3,0.3-0.8,0.2-1.1-0.1c-0.1-0.2-0.3-0.3-0.6-0.3h-11.8c-0.4,0-0.8,0.3-0.8,0.8v8.7
		c0,0.4,0.3,0.8,0.8,0.8h6.2c0.4,0,0.8,0.3,0.8,0.8C-375.4,274.7-375.8,275-376.2,275z"/>
	<path class="st1" d="M-372.1,263.2c-0.4,0-0.8-0.3-0.8-0.8v-2.8c0-2-1.6-3.6-3.6-3.6c-2,0-3.6,1.6-3.6,3.6v2.8
		c0,0.4-0.3,0.8-0.8,0.8c-0.4,0-0.8-0.3-0.8-0.8v-2.8c0-2.8,2.3-5.1,5.1-5.1c2.8,0,5.1,2.3,5.1,5.1v2.8
		C-371.3,262.9-371.7,263.2-372.1,263.2z"/>
</g>
<g>
	<text transform="matrix(1 0 0 1 82.293 327.5839)" class="st0" style="font-family:'DINPro-Medium'; font-size:15px;">Cerrar Sesión</text>
</g>
<g>
	<g>
		<path class="st0" d="M44.2,331.6l8.2-8.2l1.1,1.1l-8.2,8.2L44.2,331.6z"/>
		<path class="st0" d="M48.9,334.7c-3.7,0-6.7-3-6.7-6.7c0-3.7,3-6.7,6.7-6.7c3.7,0,6.7,3,6.7,6.7C55.5,331.7,52.5,334.7,48.9,334.7
			z M48.9,322.9c-2.8,0-5.1,2.3-5.1,5.1s2.3,5.1,5.1,5.1s5.1-2.3,5.1-5.1S51.7,322.9,48.9,322.9z"/>
		<path class="st0" d="M39.4,330.6h-6.1c-1.3,0-2.3-1-2.3-2.3v-8.7c0-1.3,1-2.3,2.3-2.3H45c0.7,0,1.3,0.3,1.7,0.8
			c0.3,0.3,0.2,0.8-0.1,1.1c-0.3,0.3-0.8,0.2-1.1-0.1c-0.1-0.2-0.3-0.3-0.6-0.3H33.2c-0.4,0-0.8,0.3-0.8,0.8v8.7
			c0,0.4,0.3,0.8,0.8,0.8h6.1c0.4,0,0.8,0.3,0.8,0.8C40.2,330.3,39.8,330.6,39.4,330.6z"/>
		<path class="st0" d="M43.5,318.8c-0.4,0-0.8-0.3-0.8-0.8v-2.8c0-2-1.6-3.6-3.6-3.6c-2,0-3.6,1.6-3.6,3.6v2.8
			c0,0.4-0.3,0.8-0.8,0.8c-0.4,0-0.8-0.3-0.8-0.8v-2.8c0-2.8,2.3-5.1,5.1-5.1c2.8,0,5.1,2.3,5.1,5.1v2.8
			C44.3,318.5,43.9,318.8,43.5,318.8z"/>
	</g>
</g>
<path class="st5" d="M-372.4,454.9c-0.4,0-0.8-0.1-1.1-0.4c-1.1-1-2.2-1.9-3.1-2.7l0,0c-2.8-2.4-5.2-4.4-6.8-6.4
	c-1.9-2.2-2.7-4.4-2.7-6.7c0-2.3,0.8-4.3,2.2-5.9c1.4-1.5,3.4-2.4,5.5-2.4c1.6,0,3,0.5,4.3,1.5c0.6,0.5,1.2,1.1,1.7,1.8
	c0.5-0.7,1.1-1.3,1.7-1.8c1.3-1,2.7-1.5,4.3-1.5c2.1,0,4.1,0.8,5.5,2.4c1.4,1.5,2.2,3.6,2.2,5.9c0,2.3-0.9,4.4-2.7,6.7
	c-1.7,2-4.1,4-6.8,6.4c-0.9,0.8-2,1.7-3.1,2.7C-371.6,454.8-372,454.9-372.4,454.9z M-378.4,432.1c-1.7,0-3.2,0.7-4.3,1.9
	c-1.1,1.2-1.8,2.9-1.8,4.8c0,2,0.7,3.7,2.4,5.7c1.6,1.9,3.9,3.9,6.6,6.2l0,0c0.9,0.8,2,1.7,3.1,2.7c1.1-1,2.2-1.9,3.1-2.7
	c2.7-2.3,5-4.3,6.6-6.2c1.6-2,2.4-3.7,2.4-5.7c0-1.9-0.6-3.5-1.8-4.8c-1.1-1.2-2.6-1.9-4.3-1.9c-1.2,0-2.3,0.4-3.3,1.2
	c-0.9,0.7-1.5,1.5-1.9,2.1c-0.2,0.3-0.5,0.5-0.9,0.5s-0.7-0.2-0.9-0.5c-0.4-0.6-1-1.5-1.9-2.1C-376.1,432.5-377.2,432.1-378.4,432.1
	z"/>
<g>
	<g>
		<text transform="matrix(1 0 0 1 -336.2026 510.9847)" class="st5" style="font-family:'DINPro-Medium'; font-size:15px;">Alertas</text>
	</g>
	<g>
		<g>
			<g>
				<path class="st1" d="M-356.9,510.8l-12.2-21.2c-0.7-1.2-1.9-1.9-3.3-1.9s-2.6,0.7-3.3,1.9l-12.2,21.2c-0.7,1.2-0.7,2.6,0,3.8
					c0.7,1.2,1.9,1.9,3.3,1.9h24.5c1.4,0,2.6-0.7,3.3-1.9C-356.2,513.4-356.2,512-356.9,510.8z M-358.5,513.6
					c-0.3,0.6-1,0.9-1.6,0.9h-24.5c-0.7,0-1.3-0.4-1.6-0.9c-0.3-0.6-0.3-1.3,0-1.9l12.2-21.2c0.3-0.6,1-0.9,1.6-0.9s1.3,0.4,1.6,0.9
					l12.2,21.2C-358.2,512.3-358.2,513-358.5,513.6z"/>
			</g>
		</g>
		<g>
			<g>
				<rect x="-373.3" y="497.1" class="st1" width="1.9" height="9.4"/>
			</g>
		</g>
	</g>
	<g>
		<g>
			<path class="st1" d="M-372,508.3c-0.7,0-1.2,0.6-1.2,1.2c0,0.7,0.6,1.2,1.2,1.2c0.7,0,1.2-0.6,1.2-1.2
				C-370.7,508.9-371.3,508.3-372,508.3z"/>
		</g>
	</g>
</g>
<g>
	<text transform="matrix(1 0 0 1 79.833 446.9174)" class="st0" style="font-family:'DINPro-Medium'; font-size:15px;">Usuarios</text>
</g>
<g>
	<g>
		<g>
			<path class="st0" d="M52,439.4c2.9-2.6,3.1-7,0.5-9.9c-2.4-2.6-6.4-3.1-9.3-1c-3.2-2.2-7.6-1.5-9.8,1.7c-2.1,2.9-1.6,6.9,1,9.3
				c-3.3,1.7-5.3,5.1-5.3,8.9v3c0,0.6,0.4,1,1,1h26.1c0.6,0,1-0.4,1-1v-3C57.3,444.5,55.3,441.1,52,439.4z M47.3,429.2
				c2.8,0,5,2.2,5,5c0,2-1.2,3.8-3,4.6c-0.1,0-0.2,0.1-0.2,0.1c-0.2,0.1-0.5,0.2-0.8,0.2c-0.1,0-0.1,0-0.2,0
				c-0.3,0.1-0.6,0.1-0.9,0.1c-0.1,0-0.3,0-0.4,0c-0.1,0-0.1,0-0.2,0c-0.6-0.1-1.1-0.2-1.6-0.5c0,0,0,0-0.1,0
				c-0.1,0-0.2-0.1-0.3-0.1c0,0,0,0,0,0c0.5-0.6,0.8-1.3,1.1-2l0-0.1c0.1-0.3,0.2-0.7,0.3-1c0-0.1,0-0.1,0-0.2
				c0.1-0.4,0.1-0.7,0.1-1.1c0-0.4,0-0.7-0.1-1.1c0-0.1,0-0.1,0-0.2c-0.1-0.4-0.2-0.7-0.3-1l0-0.1c-0.3-0.7-0.6-1.4-1.1-2
				c0,0,0,0,0,0C45.5,429.4,46.4,429.2,47.3,429.2z M34.2,434.2c0-2.8,2.2-5,5-5c1.3,0,2.5,0.5,3.5,1.4c0.1,0.1,0.1,0.1,0.2,0.2
				c0.2,0.2,0.3,0.4,0.5,0.6c0,0.1,0.1,0.1,0.1,0.2c0.1,0.2,0.3,0.4,0.4,0.7c0,0.1,0,0.1,0.1,0.2c0.1,0.3,0.2,0.5,0.2,0.8
				c0,0,0,0.1,0,0.1c0.1,0.6,0.1,1.3,0,1.9c0,0,0,0.1,0,0.1c-0.1,0.3-0.1,0.5-0.2,0.8c0,0.1,0,0.1-0.1,0.2c-0.1,0.2-0.2,0.5-0.4,0.7
				c0,0.1-0.1,0.1-0.1,0.2c-0.1,0.2-0.3,0.4-0.5,0.6c-0.1,0.1-0.1,0.1-0.2,0.2c-0.4,0.4-0.9,0.7-1.4,0.9c-0.1,0-0.2,0.1-0.2,0.1
				c-0.2,0.1-0.5,0.2-0.7,0.2c-0.1,0-0.1,0-0.2,0c-0.3,0.1-0.5,0.1-0.8,0.1h-0.1c-0.3,0-0.6,0-0.8-0.1c-0.1,0-0.1,0-0.2,0
				c-0.3-0.1-0.5-0.1-0.7-0.2c-0.1,0-0.2-0.1-0.2-0.1C35.4,438,34.2,436.2,34.2,434.2z M47.3,450.3H31.2v-2c0-3.4,2.1-6.4,5.3-7.6
				c1.7,0.7,3.7,0.7,5.4,0c0.3,0.1,0.7,0.3,1,0.4c0.2,0.1,0.4,0.2,0.6,0.4c0.1,0.1,0.3,0.2,0.4,0.3c0.2,0.1,0.4,0.3,0.6,0.4
				c0.1,0.1,0.2,0.2,0.3,0.3c0.2,0.2,0.3,0.3,0.5,0.5c0.1,0.1,0.2,0.2,0.3,0.4c0.1,0.2,0.3,0.3,0.4,0.5c0.1,0.2,0.2,0.3,0.3,0.5
				c0.1,0.2,0.2,0.3,0.3,0.5c0.1,0.2,0.2,0.4,0.2,0.6c0.1,0.2,0.1,0.3,0.2,0.5c0.1,0.2,0.1,0.5,0.2,0.7c0,0.1,0.1,0.3,0.1,0.4
				c0.1,0.4,0.1,0.8,0.1,1.2L47.3,450.3L47.3,450.3z M55.3,450.3h-6v-2c0-0.3,0-0.6,0-0.9c0-0.1,0-0.2,0-0.3c0-0.2-0.1-0.4-0.1-0.7
				c0-0.1,0-0.2-0.1-0.3c0-0.2-0.1-0.4-0.2-0.7c0-0.1,0-0.1-0.1-0.2c-0.3-0.9-0.7-1.8-1.2-2.5l0-0.1c-0.2-0.3-0.4-0.5-0.6-0.7l0,0
				c-0.2-0.2-0.4-0.5-0.6-0.7c0,0,0,0,0,0c0.3,0,0.6,0.1,0.9,0.1h0.1c0.3,0,0.5,0,0.8-0.1c0.1,0,0.2,0,0.2,0c0.2,0,0.4-0.1,0.6-0.1
				c0.1,0,0.1,0,0.2,0c0.3-0.1,0.5-0.2,0.8-0.3c3.2,1.1,5.4,4.2,5.3,7.6L55.3,450.3L55.3,450.3z"/>
		</g>
	</g>
</g>
<g>
	<text transform="matrix(1 0 0 1 79.6309 504.2509)" class="st0" style="font-family:'DINPro-Medium'; font-size:15px;">Pacientes</text>
</g>
<path class="st0" d="M43.2,510.5c-0.4,0-0.8-0.1-1.1-0.4c-1.1-1-2.2-1.9-3.1-2.7l0,0c-2.8-2.4-5.2-4.4-6.8-6.4
	c-1.9-2.2-2.7-4.4-2.7-6.7c0-2.3,0.8-4.3,2.2-5.9c1.4-1.5,3.4-2.4,5.5-2.4c1.6,0,3,0.5,4.3,1.5c0.6,0.5,1.2,1.1,1.7,1.8
	c0.5-0.7,1.1-1.3,1.7-1.8c1.3-1,2.7-1.5,4.3-1.5c2.1,0,4.1,0.8,5.5,2.4c1.4,1.5,2.2,3.6,2.2,5.9c0,2.3-0.9,4.4-2.7,6.7
	c-1.7,2-4.1,4-6.8,6.4c-0.9,0.8-2,1.7-3.1,2.7C44,510.4,43.6,510.5,43.2,510.5z M37.2,487.7c-1.7,0-3.2,0.7-4.3,1.9
	c-1.1,1.2-1.8,2.9-1.8,4.8c0,2,0.7,3.7,2.4,5.7c1.6,1.9,3.9,3.9,6.6,6.2l0,0c0.9,0.8,2,1.7,3.1,2.7c1.1-1,2.2-1.9,3.1-2.7
	c2.7-2.3,5-4.3,6.6-6.2c1.6-2,2.4-3.7,2.4-5.7c0-1.9-0.6-3.5-1.8-4.8c-1.1-1.2-2.6-1.9-4.3-1.9c-1.2,0-2.3,0.4-3.3,1.2
	c-0.9,0.7-1.5,1.5-1.9,2.1c-0.2,0.3-0.5,0.5-0.9,0.5s-0.7-0.2-0.9-0.5c-0.4-0.6-1-1.5-1.9-2.1C39.5,488.1,38.4,487.7,37.2,487.7z"/>
<g>
	<g>
		<g>
			<text transform="matrix(1 0 0 1 79.4058 566.5839)" class="st0" style="font-family:'DINPro-Medium'; font-size:15px;">Alertas</text>
		</g>
		<g>
			<g>
				<g>
					<path class="st0" d="M58.7,566.4l-12.2-21.2c-0.7-1.2-1.9-1.9-3.3-1.9c-1.4,0-2.6,0.7-3.3,1.9l-12.2,21.2
						c-0.7,1.2-0.7,2.6,0,3.8c0.7,1.2,1.9,1.9,3.3,1.9h24.5c1.4,0,2.6-0.7,3.3-1.9C59.4,569,59.4,567.6,58.7,566.4z M57.1,569.2
						c-0.3,0.6-1,0.9-1.6,0.9H31c-0.7,0-1.3-0.4-1.6-0.9c-0.3-0.6-0.3-1.3,0-1.9l12.2-21.2c0.3-0.6,1-0.9,1.6-0.9
						c0.7,0,1.3,0.4,1.6,0.9l12.2,21.2C57.4,567.9,57.4,568.6,57.1,569.2z"/>
				</g>
			</g>
			<g>
				<g>
					<rect x="42.3" y="552.7" class="st0" width="1.9" height="9.4"/>
				</g>
			</g>
		</g>
		<g>
			<g>
				<path class="st0" d="M43.6,563.9c-0.7,0-1.2,0.6-1.2,1.2s0.6,1.2,1.2,1.2c0.7,0,1.2-0.6,1.2-1.2S44.3,563.9,43.6,563.9z"/>
			</g>
		</g>
	</g>
</g>
<g>
	<g>
		<path class="st5" d="M-355.6,338.4l-1.9-1.9c-0.3-0.3-0.7-0.3-0.9,0c-0.3,0.3-0.3,0.7,0,0.9l0.8,0.8h-2.3v-5
			c0.6,0.2,1.3,0.3,2,0.3c0.4,0,0.7-0.3,0.7-0.7c0-0.4-0.3-0.7-0.7-0.7c-0.7,0-1.3-0.1-2-0.4v-4.9h2c0.4,0,0.7-0.3,0.7-0.7
			c0-0.4-0.3-0.7-0.7-0.7h-2v-6.8c0.9,0.6,1.5,1.1,1.6,1.1c0.1,0.1,0.3,0.2,0.4,0.2c0.2,0,0.4-0.1,0.5-0.2c0.2-0.3,0.2-0.7-0.1-0.9
			c0,0-1.2-1-2.8-1.8c0,0,0,0,0,0c-1.4-0.6-2.7-1-3.9-1h0c-0.7,0-1.4,0.1-2,0.3c-0.2,0.1-0.3,0.2-0.4,0.3c-0.1,0.2-0.1,0.3,0,0.5
			c0.1,0.3,0.3,0.5,0.6,0.5c0.1,0,0.1,0,0.2,0c0.5-0.2,1.1-0.3,1.6-0.3c0.8,0,2,0.3,3,0.7V331c-0.3-0.2-0.7-0.5-1-0.8
			c-1.3-1-2.7-2.1-4.7-2.1c-2.5,0-4.5,0.8-6.2,1.8l0,0c0.6-1,1-2,1.5-3.1h0.5c0.4,0,0.7-0.3,0.7-0.7c0-0.4-0.3-0.7-0.7-0.7
			c0.1-0.3,0.2-0.6,0.3-0.9c0.4-1.2,0.8-2.3,1.3-3.2c0.2-0.3,0-0.7-0.3-0.9c-0.1,0-0.2-0.1-0.3-0.1c-0.2,0-0.5,0.1-0.6,0.4
			c-0.5,1-1,2.2-1.4,3.5c-0.1,0.4-0.3,0.9-0.4,1.3h-1.3c-0.4,0-0.7,0.3-0.7,0.7c0,0.4,0.3,0.7,0.7,0.7h0.7c-1.2,2.9-2.9,5.2-4.9,7.1
			c0,0,0,0,0,0c-3.2,2.9-6.6,3.8-8,4.1v-11.2h1.6c0.4,0,0.7-0.3,0.7-0.7c0-0.4-0.3-0.7-0.7-0.7h-1.6v-12.1l0.8,0.8
			c0.1,0.1,0.3,0.2,0.5,0.2c0.2,0,0.3-0.1,0.5-0.2c0.3-0.3,0.3-0.7,0-0.9l-1.9-1.9c-0.3-0.3-0.7-0.3-0.9,0l-1.9,1.9
			c-0.3,0.3-0.3,0.7,0,0.9c0.3,0.3,0.7,0.3,0.9,0l0.8-0.8v24.7h-1.3c-0.4,0-0.7,0.3-0.7,0.7s0.3,0.7,0.7,0.7h1.3v1.3
			c0,0.4,0.3,0.7,0.7,0.7c0.4,0,0.7-0.3,0.7-0.7v-1.3h28.5l-0.8,0.8c-0.3,0.3-0.3,0.7,0,0.9c0.1,0.1,0.3,0.2,0.5,0.2
			c0.2,0,0.3-0.1,0.5-0.2l1.9-1.9C-355.3,339.1-355.3,338.6-355.6,338.4L-355.6,338.4z M-361.3,338.2h-20.8c1.5-0.7,3.2-1.7,4.9-3.2
			c0.5-0.4,0.9-0.8,1.4-1.2c2.2-2,4.6-4.2,8.8-4.2c1.6,0,2.7,0.8,3.9,1.8c0.6,0.4,1.2,0.9,1.8,1.3V338.2z"/>
		<path class="st5" d="M-380.5,326.9h2.7c0.4,0,0.7-0.3,0.7-0.7c0-0.4-0.3-0.7-0.7-0.7h-2.7c-0.4,0-0.7,0.3-0.7,0.7
			C-381.2,326.6-380.9,326.9-380.5,326.9z"/>
		<path class="st5" d="M-367.3,326.9h2.7c0.4,0,0.7-0.3,0.7-0.7c0-0.4-0.3-0.7-0.7-0.7h-2.7c-0.4,0-0.7,0.3-0.7,0.7
			C-367.9,326.6-367.6,326.9-367.3,326.9z"/>
		<circle class="st5" cx="-368.6" cy="318.7" r="0.7"/>
	</g>
</g>
<g>
	<text transform="matrix(1 0 0 1 79.0381 391.5839)" class="st0" style="font-family:'DINPro-Medium'; font-size:15px;">Gráficos</text>
</g>
<g>
	<g>
		<path class="st0" d="M60,394l-1.9-1.9c-0.3-0.3-0.7-0.3-0.9,0c-0.3,0.3-0.3,0.7,0,0.9l0.8,0.8h-2.3v-5c0.6,0.2,1.3,0.3,2,0.3
			c0.4,0,0.7-0.3,0.7-0.7c0-0.4-0.3-0.7-0.7-0.7c-0.7,0-1.3-0.1-2-0.4v-4.9h2c0.4,0,0.7-0.3,0.7-0.7c0-0.4-0.3-0.7-0.7-0.7h-2v-6.8
			c0.9,0.6,1.5,1.1,1.6,1.1c0.1,0.1,0.3,0.2,0.4,0.2c0.2,0,0.4-0.1,0.5-0.2c0.2-0.3,0.2-0.7-0.1-0.9c0,0-1.2-1-2.8-1.8c0,0,0,0,0,0
			c-1.4-0.6-2.7-1-3.9-1h0c-0.7,0-1.4,0.1-2,0.3c-0.2,0.1-0.3,0.2-0.4,0.3c-0.1,0.2-0.1,0.3,0,0.5c0.1,0.3,0.3,0.5,0.6,0.5
			c0.1,0,0.1,0,0.2,0c0.5-0.2,1.1-0.3,1.6-0.3c0.8,0,2,0.3,3,0.7v12.9c-0.3-0.2-0.7-0.5-1-0.8c-1.3-1-2.7-2.1-4.7-2.1
			c-2.5,0-4.5,0.8-6.2,1.8l0,0c0.6-1,1-2,1.5-3.1h0.5c0.4,0,0.7-0.3,0.7-0.7c0-0.4-0.3-0.7-0.7-0.7c0.1-0.3,0.2-0.6,0.3-0.9
			c0.4-1.2,0.8-2.3,1.3-3.2c0.2-0.3,0-0.7-0.3-0.9c-0.1,0-0.2-0.1-0.3-0.1c-0.2,0-0.5,0.1-0.6,0.4c-0.5,1-1,2.2-1.4,3.5
			c-0.1,0.4-0.3,0.9-0.4,1.3h-1.3c-0.4,0-0.7,0.3-0.7,0.7c0,0.4,0.3,0.7,0.7,0.7h0.7c-1.2,2.9-2.9,5.2-4.9,7.1c0,0,0,0,0,0
			c-3.2,2.9-6.6,3.8-8,4.1v-11.2h1.6c0.4,0,0.7-0.3,0.7-0.7c0-0.4-0.3-0.7-0.7-0.7h-1.6v-12.1l0.8,0.8c0.1,0.1,0.3,0.2,0.5,0.2
			c0.2,0,0.3-0.1,0.5-0.2c0.3-0.3,0.3-0.7,0-0.9l-1.9-1.9c-0.3-0.3-0.7-0.3-0.9,0l-1.9,1.9c-0.3,0.3-0.3,0.7,0,0.9
			c0.3,0.3,0.7,0.3,0.9,0l0.8-0.8v24.7h-1.3c-0.4,0-0.7,0.3-0.7,0.7s0.3,0.7,0.7,0.7h1.3v1.3c0,0.4,0.3,0.7,0.7,0.7
			c0.4,0,0.7-0.3,0.7-0.7v-1.3H58l-0.8,0.8c-0.3,0.3-0.3,0.7,0,0.9c0.1,0.1,0.3,0.2,0.5,0.2c0.2,0,0.3-0.1,0.5-0.2l1.9-1.9
			C60.3,394.7,60.3,394.2,60,394L60,394z M54.3,393.8H33.5c1.5-0.7,3.2-1.7,4.9-3.2c0.5-0.4,0.9-0.8,1.4-1.2c2.2-2,4.6-4.2,8.8-4.2
			c1.6,0,2.7,0.8,3.9,1.8c0.6,0.4,1.2,0.9,1.8,1.3V393.8z"/>
		<path class="st0" d="M35.1,382.5h2.7c0.4,0,0.7-0.3,0.7-0.7c0-0.4-0.3-0.7-0.7-0.7h-2.7c-0.4,0-0.7,0.3-0.7,0.7
			C34.4,382.2,34.7,382.5,35.1,382.5z"/>
		<path class="st0" d="M48.3,382.5H51c0.4,0,0.7-0.3,0.7-0.7c0-0.4-0.3-0.7-0.7-0.7h-2.7c-0.4,0-0.7,0.3-0.7,0.7
			C47.7,382.2,48,382.5,48.3,382.5z"/>
		<circle class="st0" cx="47.1" cy="374.3" r="0.7"/>
	</g>
</g>
<rect x="-407.5" y="183.7" class="st6" width="271" height="58"/>
<text transform="matrix(1 0 0 1 -335.4302 217.9847)" class="st0" style="font-family:'DINPro-Medium'; font-size:15px;">Configuraciones</text>
<g>
	<path class="st0" d="M-363.9,204.2c-2.3-2.3-5.3-3.5-8.5-3.5s-6.2,1.2-8.5,3.5c-2.3,2.3-3.5,5.3-3.5,8.5c0,3.2,1.2,6.2,3.5,8.5
		c2.3,2.3,5.3,3.5,8.5,3.5s6.2-1.2,8.5-3.5c2.3-2.3,3.5-5.3,3.5-8.5C-360.4,209.5-361.6,206.5-363.9,204.2L-363.9,204.2z
		 M-372.4,223.3c-5.8,0-10.6-4.8-10.6-10.6s4.8-10.6,10.6-10.6s10.6,4.8,10.6,10.6S-366.5,223.3-372.4,223.3L-372.4,223.3z"/>
	<path class="st0" d="M-372.4,208.7c-2.2,0-4,1.8-4,4c0,2.2,1.8,4,4,4s4-1.8,4-4C-368.4,210.5-370.2,208.7-372.4,208.7z
		 M-372.4,215.3c-1.4,0-2.6-1.2-2.6-2.6s1.2-2.6,2.6-2.6s2.6,1.2,2.6,2.6S-371,215.3-372.4,215.3z"/>
	<path class="st0" d="M-363.8,210.6l-1.7-0.3c-0.1-0.2-0.2-0.5-0.3-0.7l1-1.5c0.2-0.3,0.1-0.7-0.1-0.9l-2-2
		c-0.2-0.2-0.6-0.3-0.9-0.1l-1.5,1c-0.2-0.1-0.4-0.2-0.7-0.3l-0.3-1.7c-0.1-0.3-0.4-0.6-0.7-0.6h-2.8c-0.3,0-0.6,0.2-0.7,0.6
		l-0.3,1.7c-0.2,0.1-0.5,0.2-0.7,0.3l-1.5-1c-0.3-0.2-0.7-0.1-0.9,0.1l-2,2c-0.2,0.2-0.3,0.6-0.1,0.9l1,1.5
		c-0.1,0.2-0.2,0.4-0.3,0.7l-1.7,0.3c-0.3,0.1-0.6,0.4-0.6,0.7v2.8c0,0.3,0.2,0.6,0.6,0.7l1.7,0.3c0.1,0.2,0.2,0.5,0.3,0.7l-1,1.5
		c-0.2,0.3-0.1,0.7,0.1,0.9l2,2c0.2,0.2,0.6,0.3,0.9,0.1l1.5-1c0.2,0.1,0.4,0.2,0.7,0.3l0.3,1.7c0.1,0.3,0.4,0.6,0.7,0.6h2.8
		c0.3,0,0.6-0.2,0.7-0.6l0.3-1.7c0.2-0.1,0.5-0.2,0.7-0.3l1.5,1c0.3,0.2,0.7,0.1,0.9-0.1l2-2c0.2-0.2,0.3-0.6,0.1-0.9l-1-1.5
		c0.1-0.2,0.2-0.4,0.3-0.7l1.7-0.3c0.3-0.1,0.6-0.4,0.6-0.7v-2.8C-363.2,211-363.5,210.7-363.8,210.6L-363.8,210.6z M-364.6,213.6
		l-1.6,0.3c-0.3,0.1-0.5,0.2-0.5,0.5c-0.1,0.4-0.3,0.8-0.5,1.2c-0.1,0.2-0.1,0.5,0,0.7l0.9,1.3l-1.2,1.2l-1.3-0.9
		c-0.2-0.1-0.5-0.2-0.7,0c-0.4,0.2-0.8,0.4-1.2,0.5c-0.3,0.1-0.4,0.3-0.5,0.5l-0.3,1.6h-1.7l-0.3-1.6c-0.1-0.3-0.2-0.5-0.5-0.5
		c-0.4-0.1-0.8-0.3-1.2-0.5c-0.2-0.1-0.5-0.1-0.7,0l-1.3,0.9l-1.2-1.2l0.9-1.3c0.1-0.2,0.2-0.5,0-0.7c-0.2-0.4-0.4-0.8-0.5-1.2
		c-0.1-0.3-0.3-0.4-0.5-0.5l-1.6-0.3v-1.7l1.6-0.3c0.3-0.1,0.5-0.2,0.5-0.5c0.1-0.4,0.3-0.8,0.5-1.2c0.1-0.2,0.1-0.5,0-0.7l-0.9-1.3
		l1.2-1.2l1.3,0.9c0.2,0.1,0.5,0.2,0.7,0c0.4-0.2,0.8-0.4,1.2-0.5c0.3-0.1,0.4-0.3,0.5-0.5l0.3-1.6h1.7l0.3,1.6
		c0.1,0.3,0.2,0.5,0.5,0.5c0.4,0.1,0.8,0.3,1.2,0.5c0.2,0.1,0.5,0.1,0.7,0l1.3-0.9l1.2,1.2l-0.9,1.3c-0.1,0.2-0.2,0.5,0,0.7
		c0.2,0.4,0.4,0.8,0.5,1.2c0.1,0.3,0.3,0.4,0.5,0.5l1.6,0.3V213.6z"/>
</g>
<text transform="matrix(1 0 0 1 80.1782 273.5839)" class="st0" style="font-family:'DINPro-Medium'; font-size:15px;">Configuraciones</text>
<g>
	<path class="st0" d="M51.7,259.8c-2.3-2.3-5.3-3.5-8.5-3.5s-6.2,1.2-8.5,3.5c-2.3,2.3-3.5,5.3-3.5,8.5s1.2,6.2,3.5,8.5
		c2.3,2.3,5.3,3.5,8.5,3.5s6.2-1.2,8.5-3.5c2.3-2.3,3.5-5.3,3.5-8.5S54,262.1,51.7,259.8L51.7,259.8z M43.2,278.9
		c-5.8,0-10.6-4.8-10.6-10.6s4.8-10.6,10.6-10.6s10.6,4.8,10.6,10.6S49.1,278.9,43.2,278.9L43.2,278.9z"/>
	<path class="st0" d="M43.2,264.3c-2.2,0-4,1.8-4,4s1.8,4,4,4c2.2,0,4-1.8,4-4S45.4,264.3,43.2,264.3z M43.2,270.9
		c-1.4,0-2.6-1.2-2.6-2.6s1.2-2.6,2.6-2.6s2.6,1.2,2.6,2.6S44.7,270.9,43.2,270.9z"/>
	<path class="st0" d="M51.8,266.2l-1.7-0.3c-0.1-0.2-0.2-0.5-0.3-0.7l1-1.5c0.2-0.3,0.1-0.7-0.1-0.9l-2-2c-0.2-0.2-0.6-0.3-0.9-0.1
		l-1.5,1c-0.2-0.1-0.4-0.2-0.7-0.3l-0.3-1.7c-0.1-0.3-0.4-0.6-0.7-0.6h-2.8c-0.3,0-0.6,0.2-0.7,0.6l-0.3,1.7
		c-0.2,0.1-0.5,0.2-0.7,0.3l-1.5-1c-0.3-0.2-0.7-0.1-0.9,0.1l-2,2c-0.2,0.2-0.3,0.6-0.1,0.9l1,1.5c-0.1,0.2-0.2,0.4-0.3,0.7
		l-1.7,0.3c-0.3,0.1-0.6,0.4-0.6,0.7v2.8c0,0.3,0.2,0.6,0.6,0.7l1.7,0.3c0.1,0.2,0.2,0.5,0.3,0.7l-1,1.5c-0.2,0.3-0.1,0.7,0.1,0.9
		l2,2c0.2,0.2,0.6,0.3,0.9,0.1l1.5-1c0.2,0.1,0.4,0.2,0.7,0.3l0.3,1.7c0.1,0.3,0.4,0.6,0.7,0.6h2.8c0.3,0,0.6-0.2,0.7-0.6l0.3-1.7
		c0.2-0.1,0.5-0.2,0.7-0.3l1.5,1c0.3,0.2,0.7,0.1,0.9-0.1l2-2c0.2-0.2,0.3-0.6,0.1-0.9l-1-1.5c0.1-0.2,0.2-0.4,0.3-0.7l1.7-0.3
		c0.3-0.1,0.6-0.4,0.6-0.7v-2.8C52.4,266.6,52.1,266.3,51.8,266.2L51.8,266.2z M51,269.2l-1.6,0.3c-0.3,0.1-0.5,0.2-0.5,0.5
		c-0.1,0.4-0.3,0.8-0.5,1.2c-0.1,0.2-0.1,0.5,0,0.7l0.9,1.3l-1.2,1.2l-1.3-0.9c-0.2-0.1-0.5-0.2-0.7,0c-0.4,0.2-0.8,0.4-1.2,0.5
		c-0.3,0.1-0.4,0.3-0.5,0.5l-0.3,1.6h-1.7l-0.3-1.6c-0.1-0.3-0.2-0.5-0.5-0.5c-0.4-0.1-0.8-0.3-1.2-0.5c-0.2-0.1-0.5-0.1-0.7,0
		l-1.3,0.9l-1.2-1.2l0.9-1.3c0.1-0.2,0.2-0.5,0-0.7c-0.2-0.4-0.4-0.8-0.5-1.2c-0.1-0.3-0.3-0.4-0.5-0.5l-1.6-0.3v-1.7l1.6-0.3
		c0.3-0.1,0.5-0.2,0.5-0.5c0.1-0.4,0.3-0.8,0.5-1.2c0.1-0.2,0.1-0.5,0-0.7l-0.9-1.3l1.2-1.2l1.3,0.9c0.2,0.1,0.5,0.2,0.7,0
		c0.4-0.2,0.8-0.4,1.2-0.5c0.3-0.1,0.4-0.3,0.5-0.5l0.3-1.6h1.7l0.3,1.6c0.1,0.3,0.2,0.5,0.5,0.5c0.4,0.1,0.8,0.3,1.2,0.5
		c0.2,0.1,0.5,0.1,0.7,0l1.3-0.9l1.2,1.2l-0.9,1.3c-0.1,0.2-0.2,0.5,0,0.7c0.2,0.4,0.4,0.8,0.5,1.2c0.1,0.3,0.3,0.4,0.5,0.5l1.6,0.3
		V269.2z"/>
</g>
<g>
	<g>
		<g>
			<g>
				<g>
					<path class="st2" d="M76.3,102.8h-9.4c-2.5,0-4.6,2.1-4.6,4.6v9.4c0,2.5,2.1,4.6,4.6,4.6h9.4c2.5,0,4.6-2.1,4.6-4.6v-9.4
						C80.9,104.9,78.8,102.8,76.3,102.8z M78,116.8c0,0.9-0.8,1.7-1.7,1.7h-9.4c-0.9,0-1.7-0.8-1.7-1.7v-9.4c0-0.9,0.8-1.7,1.7-1.7
						h9.4c0.9,0,1.7,0.8,1.7,1.7V116.8z"/>
				</g>
			</g>
			<g>
				<g>
					<path class="st2" d="M76.3,102.8h-9.4c-2.5,0-4.6,2.1-4.6,4.6v9.4c0,2.5,2.1,4.6,4.6,4.6h9.4c2.5,0,4.6-2.1,4.6-4.6v-9.4
						C80.9,104.9,78.8,102.8,76.3,102.8z M78,116.8c0,0.9-0.8,1.7-1.7,1.7h-9.4c-0.9,0-1.7-0.8-1.7-1.7v-9.4c0-0.9,0.8-1.7,1.7-1.7
						h9.4c0.9,0,1.7,0.8,1.7,1.7V116.8z"/>
				</g>
			</g>
			<path class="st2" d="M103.9,104.3c0-1-0.8-1.7-1.7-1.7c-1,0-1.7,0.8-1.7,1.7c0,3.4-2.7,6.1-6.1,6.1c-3.4,0-6.1-2.7-6.1-6.1
				c0-1-0.8-1.7-1.7-1.7c-1,0-1.7,0.8-1.7,1.7c0,3.3,1.6,6.2,4.3,8c-2.7,1.8-4.3,4.6-4.3,7.7c0,1,0.8,1.7,1.7,1.7
				c1,0,1.7-0.8,1.7-1.7c0-3.3,2.7-5.8,6.1-5.8c3.4,0,6.1,2.6,6.1,5.8c0,1,0.8,1.7,1.7,1.7c1,0,1.7-0.8,1.7-1.7
				c0-3.2-1.6-5.9-4.3-7.7C102.3,110.5,103.9,107.5,103.9,104.3z"/>
			<path class="st2" d="M109.2,102.3c-1,0-1.7,0.8-1.7,1.7v15.7c0,1,0.8,1.7,1.7,1.7c1,0,1.7-0.8,1.7-1.7V104
				C110.9,103.1,110.1,102.3,109.2,102.3z"/>
			<path class="st2" d="M128,102.3h-11.8c-1,0-1.7,0.8-1.7,1.7v15.7c0,1,0.8,1.7,1.7,1.7c1,0,1.7-0.8,1.7-1.7v-6.1H128
				c3.1,0,5.7-2.5,5.7-5.7C133.6,104.8,131.1,102.3,128,102.3z M130.1,108c0,1.2-1,2.2-2.2,2.2h-10.1v-4.4H128
				C129.2,105.8,130.1,106.8,130.1,108z"/>
			<path class="st2" d="M154.6,102.5c-1,0-1.7,0.8-1.7,1.7v7.9c0,3.4-2.7,6.1-6.1,6.1c-3.4,0-6.1-2.7-6.1-6.1v-7.9
				c0-1-0.8-1.7-1.7-1.7c-1,0-1.7,0.8-1.7,1.7v7.9c0,5.3,4.3,9.6,9.6,9.6c5.3,0,9.6-4.3,9.6-9.6v-7.9
				C156.4,103.3,155.6,102.5,154.6,102.5z"/>
			<path class="st2" d="M173.4,117.8h-10.1v-13.5c0-1-0.8-1.7-1.7-1.7c-1,0-1.7,0.8-1.7,1.7v15.3c0,1,0.8,1.7,1.7,1.7h11.8
				c1,0,1.7-0.8,1.7-1.7C175.2,118.6,174.4,117.8,173.4,117.8z"/>
		</g>
	</g>
	<g>
		<path class="st2" d="M32.9,117.5c-0.6,0-1.2-0.3-1.5-0.9l-4.3-7.7h-2.4c-1,0-1.7-0.8-1.7-1.7c0-1,0.8-1.7,1.7-1.7h3.4
			c0.6,0,1.2,0.3,1.5,0.9l3.3,5.9l12.5-22.4c0.3-0.5,0.9-0.9,1.5-0.9h4.6c1,0,1.7,0.8,1.7,1.7c0,1-0.8,1.7-1.7,1.7h-3.6l-13.5,24.2
			C34.1,117.2,33.5,117.5,32.9,117.5C32.9,117.5,32.9,117.5,32.9,117.5z"/>
		<g>
			<path class="st3" d="M24.1,126.5c-4.1,0-7.4-3.3-7.4-7.4v-18.3c0-4.1,3.3-7.4,7.4-7.4h16.5l-1.4,2.5H24.1c-2.7,0-4.8,2.2-4.8,4.8
				v18.3c0,2.7,2.2,4.8,4.8,4.8h18.3c2.7,0,4.8-2.2,4.8-4.8v-18.3c0-0.6-0.1-1.2-0.3-1.8l1.4-2.6c1,1.3,1.5,2.8,1.5,4.4v18.3
				c0,4.1-3.3,7.4-7.4,7.4H24.1z"/>
		</g>
	</g>
</g>
</svg>
